<svg width="42" height="37" viewBox="0 0 42 37" fill="none" xmlns="http://www.w3.org/2000/svg">
<path d="M13.1251 13.2801H28.1259C28.1259 14.8483 27.1724 16.2481 25.7269 16.8196L26.0843 17.3174C26.3847 17.7418 26.2969 18.3347 25.8825 18.6439C25.4675 18.9536 24.877 18.8642 24.5658 18.4391C24.5607 18.4345 24.5556 18.4184 24.5504 18.4132L23.6179 17.0815H17.6382L16.7057 18.4132C16.3945 18.8382 15.8143 18.9271 15.3947 18.6128C14.9906 18.3083 14.8869 17.7418 15.177 17.3174L15.5241 16.8087C14.0786 16.2481 13.1251 14.8483 13.1251 13.2801ZM25.3176 7.5917C25.3176 8.11596 24.8975 8.54046 24.3794 8.54046H16.8767C16.3586 8.54046 15.9442 8.11596 15.9334 7.5917V5.68844C15.9442 4.12084 17.1976 2.85722 18.752 2.84684H22.4985C24.0585 2.85722 25.3068 4.12084 25.3176 5.68844V7.5917ZM28.1259 3.7956C28.1259 1.70374 26.4519 0 24.3794 0H16.8767C14.8037 0 13.1251 1.69337 13.1251 3.79042C13.1251 3.79561 13.1251 3.7956 13.1251 3.7956V11.3879H28.1259V3.7956ZM23.4418 5.68844V6.6372H21.5609V4.7501H22.4985C23.0217 4.7501 23.4418 5.16937 23.4418 5.68844ZM18.752 4.7501H19.6902V6.6372H17.8143V5.68844C17.8143 5.16937 18.2293 4.7501 18.752 4.7501ZM31.5664 32.2551H9.68976L12.1874 28.4642H29.0636L31.5664 32.2551ZM15.9334 22.7705H25.0378C25.1153 22.7648 25.2088 22.7544 25.2914 22.7336L27.1929 25.6173H14.0684L15.9334 22.7705ZM23.4418 19.9231L24.0637 20.8725H17.1925L17.8143 19.9231H14.0684L0 37H6.55996L7.80881 35.1071H33.4422L34.6911 37H41.251L27.1929 19.9231H23.4418Z" fill="#687A61"/>
</svg>
