<svg width="67" height="61" viewBox="0 0 67 61" fill="none" xmlns="http://www.w3.org/2000/svg">
<path d="M61.1514 45.0948C60.6121 45.1162 58.812 45.1898 54.4069 45.3673C44.1042 45.7827 44.8909 45.7431 44.2044 45.7761C36.4831 46.1464 32.7377 46.5359 27.2924 46.5486C25.5349 46.5524 25.6516 46.5128 24.8714 46.5486C24.8714 46.5486 20.3661 46.7557 16.7094 46.503C16.4921 46.4881 16.0097 46.4469 15.8444 46.0486C15.7015 45.7025 15.8482 45.2085 16.0174 44.9129C16.3683 44.3003 17.0029 44.2124 17.3138 44.1745C19.2662 43.9388 20.2424 43.8212 21.2048 43.8339C21.6023 43.8388 22.5588 43.7465 24.4728 43.5614C26.8396 43.3323 28.1963 43.0411 29.9975 42.7433C33.5967 42.1494 36.4284 41.9521 38.2723 41.8235C41.2271 41.6175 43.4012 41.6159 45.82 41.6192C50.4365 41.6252 55.8582 41.8411 55.8582 42.062C55.8582 42.3631 45.7921 42.5741 45.7937 42.7092C45.7943 42.7537 46.8936 42.7515 48.9582 42.7773C51.722 42.8114 51.866 42.8416 54.7644 42.8905C60.1982 42.9823 62.9149 43.0284 65.9228 42.9586C66.2529 42.951 66.5715 42.9455 66.8891 42.9405V37.2694C65.0205 37.2518 62.7019 37.2216 57.2593 37.1551C47.2205 37.0315 46.0845 37.0233 43.8228 37.1551C39.5611 37.404 36.0884 37.8721 34.1738 38.1347C28.2735 38.9424 25.3236 39.3462 23.5908 39.8324C23.5908 39.8324 19.4764 40.9862 13.6823 40.6159C13.6073 40.611 13.1584 40.5775 12.6448 40.2896C12.405 40.1555 11.5646 39.6847 11.5033 38.9182C11.4628 38.4094 11.7831 37.9837 11.9183 37.8084C12.883 36.5612 14.7598 36.6469 16.9246 36.6986C16.9246 36.6986 19.143 36.7513 21.8016 36.7376C23.8104 36.7271 25.1785 36.5837 26.7548 36.4376C32.1886 35.9338 40.0785 35.397 44.3933 35.197C50.4228 34.9179 48.7918 35.3283 55.9097 35.0662C60.3154 34.9041 63.4235 34.6558 66.8891 34.4564V29.6055C61.9743 30.0126 58.2776 30.4917 57.0512 30.6544C52.7135 31.2307 52.5678 31.401 48.2843 31.979C46.2328 32.2559 42.0675 32.8109 36.8713 33.1713C28.3397 33.7624 28.3523 33.0444 24.0573 33.8333C21.9095 34.2278 19.7272 34.2338 17.5728 34.5619C17.1945 34.6195 13.3029 35.2146 13.1113 34.363C13.0954 34.2921 13.073 34.069 13.137 33.8333C13.2438 33.4427 13.5268 33.2432 13.6298 33.1713C15.2213 32.0527 19.6089 31.9625 19.6089 31.9625C19.6346 31.9625 20.936 31.8131 23.5388 31.5153C28.5511 30.9423 29.5147 30.0599 33.7588 29.4621C34.9594 29.2929 37.0317 29.2391 41.1773 29.1308C46.3637 28.9957 46.8811 29.1297 50.6188 28.9984C53.89 28.8836 53.6322 28.7765 59.775 28.4023C63.3359 28.1858 65.5105 28.0946 66.8891 28.0545V20.0874C57.8363 21.5285 57.5495 21.7494 52.7715 22.3543C49.4203 22.779 50.0669 22.6065 42.6813 23.4526C38.2482 23.9608 37.1631 24.1201 33.473 24.5157C28.7257 25.0239 26.3523 25.2783 24.1865 25.3662C20.1263 25.531 15.3412 25.4371 15.3412 25.4371C15.3412 25.4371 15.016 24.6075 15.0823 24.197C15.2191 23.3504 17.1572 23.2757 17.1572 23.2757C19.8317 23.1724 22.4712 22.1636 25.1468 22.2125C28.0901 22.2664 31.0235 21.7153 33.9657 21.5746C38.6769 21.3499 44.8931 21.0533 51.1898 20.1571C51.1898 20.1571 59.0266 19.0424 66.8896 18.1111V0H0V60.6516H66.8896V44.88C64.6657 44.958 62.7358 45.0311 61.1503 45.0937L61.1514 45.0948ZM62.4221 49.4654C61.452 49.8297 60.0334 50.3187 58.2979 50.7544C55.4285 51.4752 53.2763 51.6532 51.4756 51.806C47.4192 52.1499 43.3667 52.5515 39.3104 52.8916C37.3186 53.0586 34.3298 53.3229 30.6469 53.7059C29.5409 53.5669 28.7903 52.4576 28.8308 51.3994C28.8703 50.3736 29.6389 49.7605 29.7129 49.7033C30.5489 49.6467 32.9118 49.4885 33.7599 49.4319C39.9602 49.0182 43.1154 48.8078 45.8211 48.6517C46.9665 48.5858 51.0266 48.3551 56.3264 48.2446C61.3069 48.1408 63.5757 48.2221 63.6151 48.6858C63.637 48.9424 62.9707 49.2501 62.4221 49.4654Z" fill="#65785E"/>
</svg>
