<svg width="604" height="496" viewBox="0 0 604 496" fill="none" xmlns="http://www.w3.org/2000/svg">
<g opacity="0.77">
<path d="M356.047 359.914C356.864 358.697 357.449 357.118 358.125 355.287C358.945 353.068 359.876 350.55 361.509 347.791C362.178 346.65 362.907 345.563 363.676 344.562C367.8 339.225 373.954 334.709 382.49 330.758C398.917 323.165 408.718 318.019 413.098 315.627C415.319 314.412 416.358 313.79 416.358 313.79C416.602 313.643 416.697 313.364 416.588 313.12L416.398 312.688C414.697 308.658 399.697 273.32 391.5 260.854C393.52 259.184 395.605 257.581 397.713 256.098C397.72 256.092 397.724 256.083 397.731 256.077C397.787 256.034 397.832 255.982 397.868 255.923C397.875 255.912 397.886 255.904 397.893 255.891C397.928 255.824 397.949 255.75 397.951 255.671C397.951 255.666 397.948 255.662 397.948 255.656C397.948 255.653 397.95 255.65 397.95 255.646C397.95 255.63 397.939 255.617 397.936 255.601C397.929 255.538 397.913 255.478 397.883 255.424C397.87 255.399 397.852 255.38 397.835 255.358C397.801 255.313 397.764 255.274 397.717 255.24C397.704 255.23 397.698 255.215 397.684 255.206C395.505 253.85 393.543 252.706 391.692 251.713C381.463 246.112 373.361 243.641 364.784 241.025C357.987 238.953 350.958 236.808 342.669 232.948C342.451 232.846 342.188 232.869 341.994 233.004C341.802 233.14 341.716 233.364 341.776 233.576C342.36 235.623 342.851 238.1 343.239 240.934C343.903 245.785 344.256 251.759 344.295 258.683C337.525 257.364 317.944 254.182 299.771 257.039C314.673 244.224 347.366 208.834 349.899 193.57C349.943 193.309 349.974 193.02 350.012 192.745C360.957 221.887 375.19 234.971 395.415 251.344L397.585 253.09C397.702 253.185 397.851 253.233 398.003 253.233C398.099 253.233 398.195 253.214 398.285 253.173C398.515 253.068 398.649 252.848 398.622 252.619C397.271 241.214 391.995 220.401 383.253 199.538C385.75 194.607 392.2 193.927 393.978 193.836C395.381 198.238 408.07 238.31 408.269 247.916L408.287 248.535C408.287 248.538 408.289 248.541 408.289 248.544C408.289 248.546 408.287 248.548 408.287 248.55C408.287 248.555 408.29 248.559 408.29 248.564C408.29 248.57 408.287 248.574 408.288 248.579C408.375 250.05 408.627 252.238 409.04 255.08C411.588 272.855 419.698 311.173 420.049 312.804C420.049 313.005 420.173 313.191 420.371 313.29C420.464 313.337 420.569 313.359 420.672 313.359C420.786 313.359 420.902 313.331 421.003 313.275C421.174 313.179 438.252 303.626 444.378 299.976C444.624 299.841 444.85 299.706 445.043 299.58C447.732 297.95 456.555 299.026 468.766 300.517C480.54 301.953 495.192 303.742 511.407 304.026C511.409 304.026 511.412 304.025 511.415 304.025C511.416 304.025 511.418 304.026 511.419 304.026C511.549 304.026 511.671 303.978 511.779 303.908C511.813 303.886 511.852 303.873 511.88 303.845C511.884 303.84 511.886 303.834 511.889 303.83C511.893 303.827 511.897 303.826 511.9 303.823C511.906 303.817 511.902 303.809 511.907 303.803C511.999 303.695 512.047 303.563 512.035 303.426C512.035 303.422 512.038 303.418 512.037 303.413C512.037 303.411 512.038 303.408 512.037 303.405C511.71 300.953 511.491 298.358 511.382 295.688C511.382 295.686 511.382 295.685 511.382 295.684C510.861 284.183 512.178 271.422 513.847 255.267C514.614 247.841 515.484 239.423 516.274 230.116C516.283 230.02 516.255 229.93 516.213 229.848C506.441 206.014 504.834 187.248 504.745 178.164C504.693 174.357 504.918 172.213 504.921 172.191C504.921 172.187 504.917 172.184 504.918 172.18C504.925 172.101 504.916 172.021 504.882 171.942C504.867 171.905 504.838 171.877 504.815 171.846C504.803 171.829 504.796 171.815 504.782 171.8C504.7 171.706 504.59 171.644 504.463 171.612C504.452 171.609 504.448 171.599 504.437 171.597C504.432 171.596 504.045 171.518 503.339 171.36C500.873 170.844 444.882 159.104 434.68 153.988C441.536 151.507 462.444 145.811 500.296 150.658C500.582 150.686 500.853 150.552 500.961 150.318C501.069 150.082 500.983 149.811 500.753 149.66C481.453 137.03 460.669 125.508 454.878 122.345C456.25 122.332 458.881 122.397 463.573 122.616C463.85 122.616 464.121 122.466 464.203 122.22C464.284 121.975 464.168 121.71 463.921 121.581C447.177 112.849 414.809 107.27 398.812 104.925L416.682 105.235L438.182 105.315C439.499 105.417 440.738 105.467 441.916 105.467C450.538 105.467 455.83 102.825 463.948 98.7713L466.133 97.6841C466.344 97.5792 466.467 97.377 466.452 97.1632C466.437 96.9493 466.286 96.7621 466.062 96.6826C447.019 89.8505 429.39 86.5473 415.225 83.8925C408.995 82.7251 403.11 81.6222 397.932 80.3822C392.348 79.0345 387.777 77.5052 384.298 75.8313C396.026 72.2539 404.076 67.7119 408.806 61.9451C408.985 61.7264 408.961 61.4248 408.75 61.2308C408.537 61.0348 408.199 61.0067 407.951 61.1588C405.203 62.8362 399.247 63.133 390.707 62.0205C390.702 62.0198 390.682 62.0205 390.672 62.0205C384.1 61.1506 377.473 59.6597 373.448 58.6699C380.997 57.131 384.777 54.2719 388.151 51.7199C391.041 49.5346 393.536 47.6462 397.9 46.8113C398.214 46.7516 398.425 46.4898 398.388 46.2053C398.351 45.9222 398.051 45.6885 397.761 45.7125C381.679 45.9126 368.786 48.9506 353.859 52.4678C346.275 54.2541 338.432 56.1021 329.547 57.7075C327.483 58.0914 325.342 58.454 323 58.8159C319.005 59.441 315.131 59.9305 311.253 60.3486C321.502 53.3795 327.78 42.0712 332.884 32.8743L333.683 31.4362C333.791 31.2422 333.763 31.0105 333.611 30.8419C333.46 30.6746 333.214 30.5999 332.977 30.6499C319.047 33.7065 308.328 38.0263 299.533 44.1078C302.387 40.0299 303.705 38.8173 304.263 38.4712C304.501 38.3238 304.594 38.051 304.488 37.811C304.382 37.5718 304.1 37.4272 303.819 37.4656C286.733 39.6885 269.951 45.4965 253.899 54.6681C257.676 46.0806 263.045 38.0571 271.175 28.8999C271.356 28.697 271.354 28.4085 271.171 28.2062C270.987 28.0047 270.672 27.943 270.413 28.0561C255.636 34.5146 245.355 44.7185 239.799 58.3868C237.109 46.0333 234.927 43.7479 233.31 43.1975C231.938 42.7348 230.715 43.582 230.086 44.02C228.941 44.9619 227.85 45.9195 226.79 46.8647C223.454 49.8883 220.535 53.0141 218.113 56.1556C218.11 56.159 218.108 56.1618 218.106 56.1645C212.456 63.462 209.158 71.0796 208.236 78.822C206.411 77.2688 204.686 76.0733 203.266 75.1047C201.897 74.1711 200.816 73.4329 200.325 72.8091C198.846 70.9165 193.609 65.6295 190.71 66.2594C190.079 66.3958 189.283 66.8599 189.072 68.2946C188.471 72.4705 186.932 94.167 190.69 97.5196L202.027 107.633C201.745 107.818 201.465 108.004 201.179 108.19C196.347 102.157 187.29 96.9952 182.359 94.1903C180.743 93.271 179.466 92.5452 178.985 92.1579C178.434 91.713 177.734 90.9439 176.994 90.1295C175.212 88.167 173.671 86.4684 172.319 86.827C171.277 87.0998 171.116 88.4111 171.063 88.8422C170.758 91.2969 172.05 95.0697 173.686 99.8461C174.999 103.676 176.475 108.012 177.444 112.592C176.416 113.47 175.33 114.442 174.098 115.552C170.846 118.482 166.797 122.129 160.476 126.972C157.711 129.079 157.116 130.799 156.508 135.614C156.375 136.598 156.248 137.718 156.102 139.006L155.814 141.514C154.982 148.841 135.59 161.854 124.003 169.628C120.514 171.97 117.758 173.818 116.115 175.085C111.53 178.606 104.173 185.589 106.415 192.664C106.415 192.714 106.423 192.764 106.437 192.812C106.961 194.509 108.029 196.126 109.611 197.617C115.262 202.935 117.126 207.543 117.002 215.88C116.913 223.455 118.471 224.911 126.18 227.445L126.177 227.446C125.662 227.801 124.294 228.745 124.802 229.675C125.42 230.803 128.453 230.475 130.185 230.184C126.158 237.963 125.347 244.965 127.848 250.994C130.236 256.751 135.284 260.413 139.209 261.918C143.413 263.556 146.887 264.279 150.645 264.279C150.929 264.279 151.215 264.276 151.504 264.266C154.202 264.2 157.131 263.778 160.452 262.978C161.641 262.701 162.835 262.383 164.103 262.006C164.111 262.004 164.12 262.006 164.127 262.004C164.419 261.923 164.711 261.841 165.016 261.744C166.04 261.435 167.07 261.056 168.07 260.625C169.1 260.19 170.189 259.675 171.308 259.094C172.316 258.556 173.235 258.031 174.111 257.491C175.935 256.4 177.887 255.127 180.25 253.482C181.539 252.588 182.815 251.68 184.072 250.785C188.923 247.333 193.539 244.048 197.467 242.603C190.58 253.031 174.09 289.165 176.513 301.789C176.566 302.056 176.825 302.25 177.127 302.25H177.149C177.461 302.24 177.716 302.026 177.747 301.749C178.017 299.317 180.04 296.113 183.757 292.23C183.764 292.223 183.76 292.213 183.767 292.205C188.293 287.476 194.095 283.036 196.458 281.291C196.229 285.07 195.261 297.467 191.637 317.669C191.592 317.917 191.738 318.159 191.994 318.263C192.076 318.297 192.165 318.312 192.252 318.312C192.432 318.312 192.609 318.242 192.73 318.114C203.029 307.14 213.47 294.921 219.365 276.934L219.301 277.887C217.602 302.641 216.75 315.066 223.598 325.654C223.711 325.828 223.919 325.931 224.138 325.931C224.182 325.931 224.225 325.928 224.269 325.919C224.534 325.869 224.731 325.672 224.758 325.432C225.139 322.059 226.955 318.375 230.011 314.774C231.22 313.329 232.637 311.931 234.214 310.597C227.882 319.053 226.58 325.92 229.943 332.48C233.391 339.201 232.338 350.737 232.327 350.853C232.303 351.092 232.456 351.318 232.705 351.411C232.956 351.505 233.242 351.446 233.418 351.264L236.755 347.824C236.991 349.578 237.338 353.099 237.058 357.328C237.058 357.332 237.06 357.335 237.06 357.339C237.06 357.341 237.058 357.343 237.058 357.345C236.642 364.125 234.588 373.569 227.173 380.058C226.96 380.244 226.926 380.54 227.089 380.762C227.208 380.922 227.404 381.01 227.609 381.01C227.689 381.01 227.769 380.998 227.847 380.968C240.328 376.354 256.233 363.411 260.394 359.919L260.723 375.64C260.729 375.899 260.935 376.121 261.22 376.173C261.51 376.226 261.792 376.096 261.913 375.86C267.769 364.419 292.799 334.546 300.327 325.667L300.422 325.556C300.908 324.993 301.234 324.614 301.309 324.511C301.351 324.472 301.46 324.35 301.488 324.302C301.493 324.293 301.491 324.283 301.496 324.273C301.5 324.265 301.509 324.261 301.513 324.254C301.526 324.225 301.518 324.193 301.526 324.163C301.536 324.122 301.56 324.082 301.559 324.039C301.536 321.96 301.012 275.923 298.878 260.471C302.849 265.981 313.873 280.299 327.324 289.476C318.217 298.841 310.848 310.241 304.165 325.301L303.577 326.635C300.763 333.076 297.958 340.44 295.003 349.153C292.342 357.034 289.497 364.686 286.544 371.899C286.544 371.899 286.544 371.9 286.543 371.901C286.543 371.902 286.541 371.904 286.541 371.906C284.059 377.976 281.533 383.611 279.428 387.774L279.333 387.965C279.303 388.026 279.292 388.091 279.288 388.154C279.285 388.191 279.293 388.22 279.298 388.257C279.314 388.362 279.357 388.458 279.434 388.539C279.446 388.553 279.441 388.571 279.455 388.584C279.472 388.6 279.498 388.594 279.516 388.607C279.56 388.639 279.603 388.674 279.658 388.695C279.721 388.719 279.787 388.726 279.852 388.73C279.866 388.731 279.877 388.744 279.891 388.744C280.004 388.744 280.117 388.718 280.217 388.665C281.915 387.854 318.628 370.422 355.693 360.159C355.84 360.119 355.964 360.033 356.044 359.915L356.047 359.914ZM360.56 347.032C346.675 348.713 336.822 353.878 327.303 358.882C323.979 360.628 320.553 362.416 316.966 364.067C321.458 359.005 325.567 353.822 329.532 348.783C338.714 337.115 346.672 327.023 355.613 323.887C358.005 329.652 360.259 336.289 362.493 344.153C361.81 345.058 361.162 346.023 360.56 347.032ZM337.537 296.656C339.211 298.124 340.831 299.7 342.33 301.426C342.337 301.433 342.332 301.443 342.338 301.45C345.564 305.092 348.455 309.337 351.179 314.423C352.56 317.006 353.903 319.84 355.176 322.845C345.879 326.098 337.815 336.322 328.513 348.144C326.359 350.882 324.169 353.665 321.898 356.446C331.405 340.016 337.826 315.483 337.537 296.656ZM352.411 314.155C358.845 296.562 372.495 277.426 388.475 263.425C383.156 272.839 379.885 279.785 379.849 279.861C379.844 279.872 379.846 279.883 379.842 279.894C379.839 279.901 379.831 279.905 379.829 279.912C371.933 302.939 359.197 318.534 356.163 322.042C354.964 319.242 353.706 316.59 352.411 314.155ZM320.921 355.668C320.941 332.318 327.696 305.582 334.39 294.042C335.007 294.502 335.636 294.995 336.281 295.529C336.845 314.252 330.457 339.061 320.922 355.669L320.921 355.668ZM381.916 329.771C373.706 333.571 367.664 337.91 363.442 342.986C361.25 335.366 359.033 328.892 356.681 323.256C358.573 321.131 372.095 305.429 380.579 281.499C390.653 297.857 404.085 309.357 411.709 315.081C407.031 317.612 397.452 322.591 381.916 329.771ZM415.234 313.083L415.247 313.111C414.809 313.364 413.997 313.826 412.83 314.469C405.196 308.779 391.286 296.96 381.116 280.04C381.767 278.678 385.327 271.316 390.742 261.901C398.949 274.69 413.558 309.11 415.234 313.083ZM390.285 260.334C373.345 274.342 358.65 294.317 351.632 312.765C349.105 308.212 346.426 304.314 343.462 300.94L343.522 300.179C344.384 289.174 345.558 274.168 345.547 260.07C346.414 260.247 346.909 260.358 346.946 260.365C347.517 260.461 348.087 260.506 348.65 260.506C354.033 260.505 358.903 256.501 359.912 255.617L395.617 256.189C393.808 257.505 392.017 258.887 390.284 260.333L390.285 260.334ZM344.631 242.034C349.502 245.314 357.054 253.167 358.808 255.021C357.353 256.226 352.2 260.122 347.215 259.284C347.215 259.284 346.603 259.145 345.544 258.931C345.514 252.426 345.206 246.757 344.63 242.034L344.631 242.034ZM343.302 234.487C351.15 238.042 357.872 240.092 364.381 242.078C372.891 244.672 380.93 247.125 391.045 252.661C392.368 253.372 393.772 254.186 395.248 255.074L359.955 254.509C358.533 252.996 349.63 243.627 344.44 240.552C344.12 238.265 343.746 236.262 343.302 234.487ZM348.669 193.407C346.304 207.657 315.479 242.083 298.926 256.229C300.689 250.204 304.721 242.704 311.255 233.352C317.151 224.911 324.042 216.424 330.121 208.935C335.534 202.268 340.209 196.509 342.709 192.571C342.736 192.529 342.723 192.482 342.736 192.437C342.748 192.402 342.784 192.38 342.788 192.341C342.791 192.307 342.779 192.277 342.775 192.244C342.773 192.223 342.772 192.206 342.768 192.184C342.741 192.076 342.685 191.981 342.598 191.905C342.592 191.9 342.592 191.892 342.586 191.886C332.946 184.07 312.396 139.324 307.897 129.362C308.488 128.986 309.098 128.613 309.731 128.249C326.703 139.025 337.626 155.556 347.353 185.186C347.911 186.869 348.454 188.475 349.029 190.051C348.958 191.259 348.839 192.389 348.668 193.407L348.669 193.407ZM229.833 242.256C227.71 240.24 225.858 238.477 224.432 237.052C226.222 236.823 228.239 236.208 230.467 235.189C237.339 235.262 255.327 236.56 277.093 246.684C272.828 254.696 266.287 265.843 260.169 275.53C251.648 262.984 238.561 250.545 229.832 242.256H229.833ZM259.471 276.641C253.645 285.825 245.496 298.004 239.377 304.512C238.667 305.268 237.979 306.025 237.366 306.752C237.127 306.916 236.907 307.069 236.689 307.221C241.722 296.018 237.691 273.087 224.721 238.991C225.944 240.181 227.356 241.525 228.926 243.017C237.744 251.39 251.032 264.017 259.471 276.641H259.471ZM203.858 210.941C201.863 204.993 193.258 202.434 190.016 201.47C187.388 200.688 179.396 196.577 172.23 189.372L175.805 188.405C188.98 184.847 197.086 182.655 202.096 180.376C203.117 181.687 204.214 183.012 205.378 184.327C204.15 192.496 203.102 201.226 203.858 210.941ZM177.968 147.904C176.923 148.152 175.819 148.498 174.635 149.007C171.784 150.252 168.343 152.245 164.359 154.553C159.437 157.404 153.486 160.841 146.402 164.198C150.943 160.533 155.168 157.36 158.969 154.789C169.263 147.808 169.915 146.392 170.818 144.432C171.199 143.604 171.632 142.665 173.034 141.052C174.801 139.015 175.996 136.794 177.152 134.645C178.05 132.978 178.979 131.252 180.157 129.658C181.666 127.667 183.316 126.155 185.352 124.899C185.691 124.688 186.059 124.507 186.406 124.304C182.232 128.096 179.894 132.23 180.213 135.602C180.382 137.334 179.626 139.126 178.896 140.859C177.927 143.155 176.955 145.523 177.968 147.904ZM180.061 141.251C180.841 139.401 181.648 137.489 181.454 135.507C181.063 131.382 185.183 125.899 191.949 121.529C198.216 118.913 204.174 117.918 207.938 119.019C208.107 119.067 208.292 119.151 208.467 119.213C204.619 123.015 201.416 126.422 198.735 129.581C191.517 138.054 187.83 144.744 187.411 150.023C185.137 148.004 182.381 147.224 179.198 147.659C178.242 145.616 179.115 143.493 180.06 141.25L180.061 141.251ZM205.141 167.184C205.259 168.29 206.139 169.253 207.589 169.942C208.631 173.185 208.149 175.697 207.628 178.348C207.26 180.217 206.905 182.152 207.052 184.395C206.878 184.206 206.686 184.013 206.517 183.825C205.192 182.336 203.944 180.83 202.808 179.351C199.036 174.401 196.256 169.395 194.057 163.596C194.057 163.596 194.057 163.595 194.057 163.595C191.895 151.017 197.279 147.396 199.811 146.407C201.874 147.228 204.31 147.7 207.077 147.79L207.418 147.795C210.428 147.795 213.907 146.688 217.592 145.518C222.248 144.037 227.57 142.347 232.74 142.725C233.035 142.757 233.282 142.596 233.377 142.36C233.472 142.124 233.378 141.86 233.148 141.717C228.104 138.567 222.764 136.97 217.277 136.97C210.031 136.97 204.159 139.694 200.467 142.016C199.833 142.06 199.079 142.162 198.253 142.327C198.182 142.339 198.012 142.371 197.772 142.087C196.719 140.841 196.491 135.812 199.766 130.213C202.482 127.013 205.73 123.563 209.661 119.69C215.531 122.345 223.144 129.63 225.018 136.229C225.078 136.439 225.267 136.598 225.505 136.639C227.625 137 232.372 139.717 234.583 142.729C235.231 143.619 235.606 144.466 235.697 145.259C235.712 145.363 235.71 145.466 235.71 145.57C235.71 146.487 235.283 147.276 234.406 147.98C231.139 150.574 224.059 154.33 217.812 157.643C213.583 159.886 209.929 161.825 207.904 163.153C205.439 164.766 205.043 166.236 205.143 167.185L205.141 167.184ZM202.468 143.981C206.384 141.937 212.916 140.516 218.714 140.516C220.298 140.516 221.754 140.623 223.037 140.831C221.178 141.185 219.281 141.693 217.31 142.22C213.57 143.223 209.702 144.259 205.812 144.259C204.643 144.259 203.539 144.168 202.468 143.981ZM188.349 152.873C188.89 153.631 189.408 154.49 189.908 155.49C190.325 156.334 190.727 157.58 191.236 159.157C191.681 160.538 192.186 162.103 192.859 163.903C192.86 163.907 192.863 163.909 192.865 163.913C192.867 163.92 192.868 163.928 192.871 163.935C192.871 163.937 192.875 163.938 192.875 163.94C192.877 163.944 192.875 163.948 192.877 163.953C195.034 169.641 197.765 174.579 201.401 179.444C196.447 181.666 187.997 183.951 175.445 187.341L171.324 188.455C168.569 185.542 166.274 182.493 164.485 179.38C175.252 171.282 186.687 160.4 188.349 152.873ZM206.464 185.498C206.776 185.831 207.072 186.162 207.403 186.497C208.461 187.616 209.615 188.757 210.83 189.889C216.6 195.225 223.625 200.317 231.699 205.031C230.381 209.156 229.24 214.109 228.141 218.92C226.676 225.327 225.293 231.38 223.661 234.676C223.66 234.679 223.661 234.682 223.659 234.685C223.657 234.689 223.655 234.693 223.653 234.697C223.396 235.085 223.16 235.468 222.933 235.838L222.875 235.932C221.117 235.356 219.621 235.101 218.184 234.871C216.235 234.559 214.382 234.25 211.975 233.125C209.127 227.368 207.256 221.822 205.81 217.148C205.81 217.146 205.807 217.144 205.806 217.141C205.806 217.139 205.806 217.137 205.806 217.135C203.946 205.319 205.058 195.029 206.465 185.498L206.464 185.498ZM209.028 170.485C210.217 170.818 211.616 171.005 213.147 171.028C216.149 171.1 220.576 171.378 225.418 172.768C218.403 176.137 212.689 182.287 210.936 188.359C210.08 187.54 209.253 186.72 208.477 185.906C207.973 183.085 208.415 180.772 208.854 178.54C209.333 176.1 209.816 173.58 209.029 170.486L209.028 170.485ZM233.514 84.9981C230.53 81.8134 227.949 79.0482 226.397 76.5319C228.761 74.1567 232.673 70.5368 238.338 66.2601C239.099 65.6768 239.876 65.0928 240.691 64.5081C242.87 62.928 244.951 61.5146 247.035 60.1738L255.752 84.412C255.755 84.4209 255.752 84.4299 255.755 84.4388L256.752 87.1848C256.837 87.4165 257.078 87.5693 257.344 87.5693C257.375 87.5693 257.405 87.5673 257.437 87.5631L299.264 82.0095L249.769 117.269C250.828 103.524 241.268 93.2738 233.514 84.9981ZM297.939 84.3723C291.814 91.3702 276.859 107.385 257.822 120.301C257.582 120.464 257.507 120.758 257.646 120.998C257.755 121.187 257.972 121.299 258.199 121.299C258.26 121.299 258.324 121.291 258.386 121.274C265.171 119.374 270.868 119.364 276.378 119.354C281.729 119.344 286.829 119.32 292.074 117.417C290.909 118.587 289.688 119.788 288.33 121.096C287.261 122.126 286.229 123.107 285.231 124.057C277.619 131.297 272.061 136.6 267.767 146.379C264.596 143.042 251.035 128.288 249.71 118.733L297.939 84.3723ZM289.552 129.885C289.552 129.895 289.564 129.9 289.564 129.909C289.566 129.919 289.569 129.928 289.571 129.938C289.839 133.052 288.547 137.679 285.745 143.684C284.091 143.837 282.255 144.514 280.311 145.254C277.347 146.383 273.988 147.662 270.465 147.347C269.947 147.316 269.388 147.212 268.799 147.07C273.026 137.302 278.548 132.036 286.139 124.817C286.797 124.191 287.494 123.522 288.184 122.863C288.289 125.243 288.776 126.806 289.15 127.989L289.286 128.421C289.438 128.945 289.522 129.41 289.551 129.885H289.552ZM271.072 148.486C271.246 148.492 271.421 148.509 271.593 148.509C274.941 148.509 278.036 147.33 280.801 146.277C282.369 145.68 283.862 145.121 285.173 144.877C278.428 158.864 265.158 177.634 251.632 196.011C249.275 185.928 257.219 173.601 263.679 163.614C267.9 157.087 271.242 151.868 271.073 148.486L271.072 148.486ZM265.71 145.927C257.667 142.116 245.847 131.016 236.848 121.166C234.512 114.323 231.413 109.565 228.219 105.638C229.772 106.513 231.391 107.351 233.074 108.212C238.446 110.959 243.996 113.804 248.462 118.729C249.622 127.831 261.178 141.049 265.71 145.927ZM267.712 147.947C267.712 147.947 267.717 147.949 267.72 147.95C267.729 147.952 267.738 147.956 267.747 147.959C267.747 147.959 267.748 147.96 267.75 147.96C267.75 147.96 267.752 147.96 267.753 147.96C267.758 147.961 267.764 147.964 267.769 147.965C267.774 147.967 267.78 147.969 267.783 147.97C267.798 147.975 267.813 147.98 267.829 147.983C268.547 148.193 269.2 148.312 269.825 148.386C270.11 151.403 266.64 156.808 262.599 163.057C255.811 173.554 247.392 186.594 250.683 197.299L248.44 200.337C247.807 192.515 245.373 186.053 241.155 181.135C241.181 179.158 241.247 171.889 241.152 153.087C241.135 150.358 241.065 147.843 240.939 145.424L240.92 144.969C240.482 136.74 239.421 129.788 237.687 123.816C249.968 136.972 261.084 145.927 267.712 147.945V147.947ZM240.966 182.83C244.784 187.76 246.931 194.152 247.316 201.876L243.189 207.439C236.644 216.255 230.841 224.081 226.596 230.269C227.546 227.081 228.437 223.182 229.361 219.143C230.49 214.204 231.657 209.099 233.014 204.942L233.119 204.63C236.279 195.119 240.175 184.89 240.965 182.831L240.966 182.83ZM239.907 182.157C239.492 183.236 235.397 193.91 232.061 203.911C224.305 199.358 217.546 194.457 211.962 189.329C213.427 183.121 219.697 176.444 227.055 173.273C232.345 175.055 236.669 177.818 239.907 181.494V182.157ZM224.803 235.137C224.805 235.133 224.804 235.128 224.806 235.124C224.807 235.12 224.81 235.117 224.811 235.113C229.04 228.509 236.08 219.027 244.227 208.053L248.468 202.334C248.474 202.327 248.468 202.318 248.473 202.311L251.868 197.714C265.992 178.554 279.994 158.833 286.762 144.403C288.956 139.748 290.244 135.972 290.678 132.948C290.89 133.46 291.112 133.99 291.351 134.553C292.308 136.818 293.394 139.383 294.346 142.313C296.101 147.605 296.814 152.428 296.527 157.06C296.3 160.647 295.447 164.112 293.989 167.363C293.254 169.026 292.182 170.971 290.715 173.312C290.709 173.323 290.709 173.336 290.703 173.347C282.121 187.121 261.865 210.769 244.083 224.977C238.739 229.231 234.039 232.303 230.112 234.114C230.099 234.119 230.086 234.124 230.073 234.13C230.064 234.133 230.055 234.132 230.046 234.136C227.925 235.12 226.029 235.713 224.366 235.941C224.514 235.691 224.66 235.429 224.803 235.136V235.137ZM355.85 110.299C349.563 115.706 343.054 119.806 336.484 122.502C335.3 119.578 334.142 116.929 332.953 114.445C332.878 114.29 332.728 114.172 332.545 114.127C332.365 114.085 332.167 114.113 332.014 114.214C327.686 117.029 322.966 119.592 318.402 122.071C315.231 123.793 312.237 125.419 309.416 127.097C308.596 127.556 307.754 128.068 306.773 128.7C300.321 132.76 296.587 136.404 294.95 140.287C294.133 137.997 293.254 135.902 292.517 134.161C291.776 132.409 291.135 130.897 290.795 129.743C290.792 129.735 290.787 129.727 290.784 129.719C290.755 129.357 290.692 128.992 290.606 128.618L291.034 128.459C298.214 125.812 317.189 118.797 326.177 97.5374C339.543 99.9242 348.336 102.741 355.851 110.299L355.85 110.299ZM326.601 96.4818C327.691 93.7344 328.607 90.8116 329.312 87.7558C335.84 85.6082 344.618 84.0604 353.913 82.4269C363.267 80.7818 372.906 79.0613 381.853 76.5408C380.885 78.674 379.57 81.167 378.04 83.7204C374.72 89.2816 367.565 99.9585 356.742 109.524C349.043 101.798 340.109 98.9056 326.601 96.4818ZM257.627 232.075C253.432 229.887 249.126 227.627 245.492 225.329C262.328 211.726 281.202 189.968 290.382 176.068C290.123 178.591 289.836 181.353 289.518 184.293L288.897 189.972C285.642 218.707 282.121 236.928 278.435 244.126L278.167 244.644C278.053 244.866 277.924 245.109 277.804 245.34C273.804 240.522 265.592 236.231 257.628 232.076L257.627 232.075ZM275.744 244.833C256.545 236.267 240.476 234.448 232.617 234.136C236.114 232.29 240.112 229.596 244.543 226.095C248.267 228.469 252.695 230.79 256.998 233.035C264.187 236.785 271.584 240.648 275.744 244.833ZM290.682 185.084C302.924 188.792 318.313 191.151 329.854 191.151C331.124 191.151 332.344 191.12 333.512 191.062C336.056 191.933 338.617 192.489 341.148 192.748C338.588 196.605 334.184 202.037 329.112 208.283C323.303 215.437 316.766 223.502 311.038 231.583C308.189 218.674 301.125 206.054 295.573 197.6C295.566 197.585 295.555 197.574 295.547 197.559C295.54 197.547 295.541 197.534 295.533 197.523C293.84 194.948 292.03 192.382 290.157 189.887L290.682 185.084ZM290.805 183.957C291.207 180.237 291.56 176.802 291.867 173.75C293.327 171.414 294.403 169.454 295.148 167.773C296.403 164.973 297.199 162.011 297.574 158.959C304.761 170.676 316.792 184.206 330.777 190.03C319.19 190.168 303.302 187.778 290.805 183.957H290.805ZM333.834 189.986C333.825 189.983 333.815 189.985 333.806 189.982C318.428 184.742 304.807 168.944 297.773 156.951C298.037 152.299 297.325 147.465 295.596 142.193C296.694 138.092 300.197 134.315 306.855 130.028C312.738 143.048 330.603 181.544 340.502 191.561C338.291 191.277 336.055 190.756 333.834 189.986ZM277.994 247.584C278.111 247.685 278.253 247.755 278.413 247.755C278.515 247.755 278.621 247.733 278.717 247.685C278.785 247.652 278.839 247.606 278.886 247.556C284.401 250.23 289.828 253.309 295.045 256.755C292.143 268.874 287.511 279.713 281.26 288.978L280.376 288.394C268.978 280.859 263.463 277.242 261.104 276.318C268.36 264.844 274.469 254.17 277.994 247.584ZM278.724 246.205C278.919 245.833 279.117 245.459 279.298 245.108L279.566 244.591C283.241 237.413 286.734 219.588 289.952 191.646C291.494 193.74 292.995 195.867 294.407 198.009C299.38 214.907 299.706 236.348 295.318 255.564C289.963 252.055 284.391 248.908 278.724 246.205ZM296.605 201.464C301.851 209.93 307.752 221.383 310.069 232.953C303.183 242.834 299.061 250.693 297.445 256.961C297.105 256.73 296.767 256.502 296.429 256.283C300.66 238.13 300.689 217.944 296.605 201.464ZM348.548 184.871C338.809 155.209 327.837 138.539 310.84 127.601C313.439 126.078 316.163 124.587 319.05 123.02C323.414 120.649 327.921 118.202 332.112 115.521C333.264 117.965 334.391 120.567 335.547 123.451C338.232 130.238 340.748 138.023 342.824 145.965C346.849 161.184 349.171 176.31 349.133 186.613C348.938 186.037 348.744 185.464 348.548 184.871ZM397.197 251.28L396.252 250.519C375.611 233.809 361.256 220.555 350.285 189.918C350.904 179.914 348.657 163.639 344.4 147.124C361.57 157.687 374.291 181.398 381.994 199.698C390.394 219.685 395.596 239.641 397.198 251.28H397.197ZM393.928 192.72C392.05 192.799 385.738 193.428 382.656 198.138C374.975 180.163 362.606 157.493 345.964 146.746C355.102 148.16 386.404 154.421 407.659 175.926C397.413 180.183 394.463 190.426 393.928 192.72ZM346.089 145.638C358.319 140.776 380.344 116.43 386.227 107.372C387.406 118.006 391.991 151.716 404.32 171.16C383.052 152.582 354.704 146.967 346.089 145.638ZM408.911 176.622C409.157 176.545 409.334 176.35 409.334 176.106C409.334 175.923 409.235 175.761 409.082 175.66C396.741 161.086 389.725 129.845 387.272 105.422C387.246 105.172 387.035 104.967 386.757 104.925C386.472 104.881 386.204 105.011 386.086 105.239C382.315 112.52 355.752 142.357 343.888 145.156C341.879 137.55 339.473 130.109 336.905 123.553C343.79 120.742 350.602 116.436 357.159 110.726C368.091 101.188 375.371 90.4812 378.877 84.6766L386.66 87.3897L388.702 104.263C388.702 104.263 388.703 104.265 388.704 104.266C388.713 104.34 388.738 104.413 388.783 104.482C392.222 109.763 399.316 124.923 413.576 167.152L414.302 169.281C414.334 169.399 415.129 172.237 421.349 180.528C426.851 187.832 434.664 196.9 444.59 207.503L395.161 192.892C395.681 190.658 398.587 180.457 408.913 176.623L408.911 176.622ZM395.366 194.122L445.406 208.914L409.471 247.072C408.692 236.39 397.478 200.76 395.365 194.122H395.366ZM421.12 311.895C419.979 306.491 412.961 273.007 410.43 255.982C417.925 259.559 422.909 268.603 428.165 278.17C432.481 286.027 436.953 294.117 443.08 299.41C437.341 302.796 424.423 310.045 421.12 311.895H421.12ZM468.936 299.414C455.984 297.833 447.429 296.788 444.328 298.671C444.271 298.708 444.197 298.747 444.136 298.784C438.066 293.635 433.597 285.536 429.283 277.683C423.76 267.63 418.534 258.138 410.235 254.65C409.908 252.373 409.693 250.56 409.585 249.208C438.271 253.661 463.921 269.482 509.609 302.866C494.194 302.488 480.231 300.794 468.936 299.414ZM410.079 248.156L446.544 209.433C448.228 210.684 450.321 212.7 452.816 215.513C462.792 226.826 477.467 248.84 489.258 266.53C499.183 281.419 507.05 293.216 510.153 295.945C510.244 298.088 510.415 300.175 510.647 302.187C464.775 268.657 438.977 252.72 410.079 248.156ZM512.61 255.165C511.007 270.67 509.747 283.042 510.101 294.222C506.57 290.322 498.985 278.946 490.328 265.963C478.94 248.878 464.879 227.793 454.897 216.111C477.985 221.45 503.949 227.786 512.626 229.902C513.716 230.168 514.517 230.363 514.994 230.479C514.216 239.597 513.363 247.862 512.61 255.165ZM514.657 229.245C514.205 229.135 513.654 229 512.954 228.83C504.187 226.69 477.77 220.245 454.498 214.87C471.096 199.626 485.865 188.877 503.521 179.173C503.71 188.499 505.503 206.53 514.657 229.245ZM503.612 172.956C503.551 173.886 503.476 175.553 503.499 177.879C485.38 187.773 470.327 198.715 453.351 214.334C450.77 211.465 448.656 209.464 446.914 208.25C436.794 197.506 428.812 188.313 423.122 180.869C430.232 181.437 436.971 181.697 443.307 181.697C471.944 181.697 492.504 176.619 503.612 172.956ZM502.145 172.25C488.216 176.712 460.786 182.922 422.217 179.685C416.339 171.818 415.519 169.051 415.504 168.996L415.476 168.913C419.983 166.09 427.879 160.718 433.474 154.619C441.875 159.439 492.78 170.282 502.144 172.25H502.145ZM432.873 153.538C427.486 159.548 419.693 164.892 415.095 167.793L414.767 166.832C402.3 129.913 395.275 113.601 391.379 106.495C425.954 132.742 440.256 145.299 432.872 153.538L432.873 153.538ZM460.954 121.387C452.623 121.046 452.515 121.314 452.343 121.729C452.241 121.979 452.355 122.273 452.61 122.41C452.849 122.538 476.03 135.021 498.022 149.255C462.716 145.082 442.479 150.118 434.981 152.69C440.371 143.716 425.928 131.237 391.356 105.018C400.873 106.242 440.303 111.749 460.954 121.387ZM416.698 104.124L389.88 103.658L387.968 87.8469L434.858 104.191L416.698 104.124ZM414.971 84.9796C428.785 87.5693 445.908 90.7773 464.386 97.2817L463.341 97.802C454.05 102.441 448.907 105.005 438.405 104.215L401.181 82.2631C405.464 83.194 410.107 84.0686 414.971 84.9796ZM397.508 81.4289L432.963 102.337L379.461 83.6875C380.967 81.1327 382.263 78.652 383.192 76.5504C386.797 78.3559 391.599 79.9969 397.508 81.4289ZM406.169 63.0939C401.266 68.0245 393.543 71.9886 382.666 75.1685C373.464 77.8569 363.402 79.6254 353.671 81.3363C347.101 82.4913 340.783 83.6018 335.309 84.9172C336.909 84.1097 338.638 83.2132 340.465 82.2651C352.718 75.9122 371.225 66.3156 390.61 63.1303C397.499 64.0234 402.754 64.0186 406.168 63.0946L406.169 63.0939ZM354.179 53.5419C367.708 50.3545 379.557 47.5625 393.606 46.9415C391.166 47.9834 389.292 49.3996 387.347 50.8727C383.734 53.605 379.639 56.7026 370.677 58.0214C370.391 58.0633 370.175 58.2771 370.158 58.5355C370.14 58.7947 370.325 59.0298 370.604 59.1031C373.389 59.8325 380.046 61.4865 387.171 62.6305C368.764 66.3143 351.491 75.2631 339.841 81.3048C335.839 83.379 332.32 85.2038 329.606 86.3773C331.307 78.1455 331.562 68.845 330.347 58.6918C339.034 57.1043 346.737 55.2953 354.179 53.5419ZM323.483 59.8674C325.48 59.5562 327.333 59.2423 329.12 58.9167C330.358 69.3502 330.047 78.8741 328.174 87.2218C327.423 90.56 326.426 93.7523 325.211 96.7107C316.494 117.874 297.65 124.819 290.557 127.433L290.299 127.529C289.892 126.24 289.378 124.489 289.409 121.689C291.472 119.701 293.244 117.939 294.954 116.172C294.969 116.159 294.989 116.153 295.003 116.139C297.726 113.329 300.219 110.594 302.624 107.78C309.961 99.2271 312.778 88.8936 315.263 79.7769C317.331 72.1949 319.292 65.0365 323.482 59.8681L323.483 59.8674ZM321.812 60.1101C317.945 65.3594 316.038 72.2367 314.054 79.5137C311.478 88.9642 308.815 98.7377 301.636 107.105C299.272 109.87 296.821 112.558 294.151 115.317C288.227 118.218 282.732 118.232 276.374 118.243C271.828 118.251 266.765 118.261 261.062 119.466C284.474 102.958 301.193 82.4242 301.94 81.5002C302.014 81.4165 302.053 81.3144 302.064 81.204C302.064 81.1917 302.066 81.1814 302.066 81.1691C302.067 81.1376 302.077 81.1074 302.071 81.0745C302.021 80.7715 301.705 80.5652 301.364 80.607L257.776 86.3951L257.05 84.3949C263.649 77.741 279.038 72.6144 292.643 68.0869C296.378 66.8448 299.904 65.6713 303.112 64.5135C305.163 63.7753 307.164 62.8307 309.065 61.7148C313.318 61.2973 317.513 60.7585 321.813 60.1101H321.812ZM331.97 32.0209L331.769 32.3821C326.413 42.0336 319.749 54.0409 308.599 60.6776C308.597 60.6783 308.595 60.6776 308.594 60.679C308.584 60.6824 308.58 60.692 308.571 60.6962C308.563 60.701 308.555 60.7064 308.547 60.7112C308.545 60.7126 308.545 60.7153 308.544 60.7167C308.543 60.7167 308.542 60.7181 308.541 60.7188C308.527 60.7256 308.51 60.7188 308.496 60.7263C306.629 61.8306 304.661 62.7587 302.645 63.4839C299.453 64.6362 295.934 65.807 292.208 67.047C278.787 71.5122 263.661 76.5586 256.618 83.185L256.363 82.4756C269.564 75.2233 276.883 67.4467 283.954 59.9223C288.268 55.3317 292.343 50.9961 297.574 46.9586C297.604 46.9353 297.631 46.9093 297.655 46.8805C306.513 40.0765 317.447 35.3379 331.97 32.0209ZM302.127 38.8228C300.781 40.263 298.951 42.7314 296.66 46.195C291.4 50.2688 287.319 54.6112 283 59.208C276.039 66.6138 268.833 74.2664 255.97 81.3829L248.095 59.4863C249.762 58.4128 251.365 57.4265 252.971 56.4949C268.771 47.2157 285.299 41.274 302.127 38.8228ZM240.214 60.7119C240.221 60.692 240.227 60.6694 240.232 60.6461C245.182 47.1088 254.67 36.8802 268.457 30.2071C260.788 39.1265 255.705 47.0676 252.122 55.6641C250.437 56.645 248.759 57.6767 247.002 58.8152C244.669 60.2945 242.347 61.8752 239.908 63.6444C239.603 63.863 239.323 64.081 239.028 64.2997C239.391 63.0884 239.775 61.895 240.214 60.7119ZM227.777 47.5605C228.791 46.6557 229.835 45.7385 230.895 44.8645C231.672 44.3244 232.271 44.0303 232.869 44.2346C234.855 44.9091 236.912 50.3826 238.984 60.4967C238.377 62.148 237.851 63.8006 237.379 65.5321C232 69.6038 228.194 73.084 225.798 75.4646C225.548 74.9731 225.33 74.4919 225.188 74.0395C222.936 66.8119 223.955 56.4319 227.777 47.5605ZM219.216 56.6937C221.09 54.2726 223.274 51.8618 225.712 49.5004C222.577 58.0269 221.863 67.5227 223.987 74.3391C224.226 75.0917 224.596 75.8923 225.084 76.7142C226.666 79.4211 229.397 82.3358 232.558 85.7103C240.151 93.8139 249.542 103.836 248.564 117.105C244.121 112.58 238.826 109.873 233.692 107.248C230.864 105.801 228.194 104.435 225.809 102.831C224.603 101.47 223.373 100.152 222.132 98.8254C221.392 98.0351 220.648 97.2392 219.905 96.429C219.946 92.4615 219.56 87.7297 219.147 82.7148C218.417 73.8503 217.593 63.8123 219.216 56.6937ZM217.538 58.9866C216.526 65.9695 217.25 74.8477 217.905 82.7971C218.24 86.8605 218.548 90.7211 218.633 94.1409C216.826 88.8799 214.118 84.484 210.391 80.7763C210.38 80.7647 210.374 80.7496 210.362 80.7386C210.359 80.7345 210.36 80.7283 210.356 80.7249L209.924 80.3191C209.734 80.1388 209.552 79.9716 209.367 79.8029C210.04 72.7207 212.793 65.7323 217.538 58.9866ZM218.151 96.7477C215.762 98.5032 211.171 101.617 204.158 106.237C203.962 103.142 205.471 98.9385 207.079 94.5001C208.539 90.4682 210.037 86.3163 210.43 82.5441C214.032 86.4492 216.57 91.1111 218.151 96.7477ZM191.575 96.732C188.572 94.0545 189.474 74.239 190.311 68.4365C190.407 67.7866 190.642 67.4172 191.009 67.3377C192.746 66.9538 197.231 70.7849 199.308 73.4452C199.911 74.2109 201.059 74.9944 202.514 75.9862C204.14 77.0953 206.165 78.4766 208.275 80.3918C208.523 80.6132 208.765 80.8421 209.018 81.0813L209.269 81.3171C209.12 85.2305 207.484 89.7655 205.893 94.1587C204.148 98.9762 202.52 103.524 202.979 106.906L191.575 96.732ZM201.394 109.426C201.4 109.423 201.406 109.419 201.411 109.415L201.785 109.171C202.316 108.827 202.836 108.488 203.356 108.14L204.011 107.714C211.811 102.583 216.786 99.21 219.198 97.4174C219.858 98.1331 220.516 98.8364 221.173 99.5376C222.436 100.887 223.688 102.225 224.914 103.611C224.922 103.621 224.938 103.619 224.947 103.628C228.854 108.016 232.86 113.233 235.697 121.602C237.878 128.033 239.179 135.695 239.674 144.996L239.692 145.45C239.818 147.88 239.887 150.381 239.905 153.094C239.985 168.933 239.95 176.584 239.922 179.782C236.609 176.398 232.355 173.826 227.238 172.141C227.237 172.141 227.235 172.141 227.234 172.14C221.682 170.318 216.554 169.999 213.173 169.917C211.276 169.888 209.623 169.599 208.394 169.082C207.177 168.565 206.46 167.854 206.379 167.078C206.279 166.141 207.082 165.065 208.638 164.047C210.614 162.75 214.418 160.733 218.445 158.596C224.74 155.257 231.874 151.473 235.233 148.806C236.374 147.89 236.953 146.801 236.953 145.568C236.953 145.417 236.951 145.266 236.931 145.13C236.821 144.173 236.381 143.162 235.624 142.12C233.42 139.119 228.863 136.279 226.124 135.626C223.942 128.566 215.983 121.108 209.785 118.496C209.238 118.261 208.757 118.086 208.321 117.961C204.233 116.764 197.958 117.781 191.369 120.54C189.001 121.524 186.737 122.683 184.64 123.984C182.525 125.29 180.806 126.859 179.234 128.9C175.377 130.492 172.62 131.692 171.049 132.461C169.182 133.368 167.456 134.318 166.069 135.083C164.569 135.908 162.87 136.844 162.57 136.898C162.536 136.858 162.454 136.647 162.53 136.223C162.623 135.767 163.133 134.148 165.822 132.399C166.353 132.056 167.512 131.313 169.146 130.266C175.554 126.159 188.89 117.613 200.565 109.97C200.851 109.786 201.134 109.602 201.393 109.425L201.394 109.426ZM174.881 99.5211C173.351 95.0505 172.029 91.19 172.306 88.9629C172.422 88.0149 172.672 87.8929 172.675 87.8915C173.241 87.7606 175.195 89.9061 176.032 90.8274C176.803 91.6767 177.532 92.478 178.156 92.9818C178.716 93.4308 179.965 94.1409 181.694 95.1246C186.557 97.8911 195.494 102.985 200.181 108.847C200.165 108.857 200.146 108.87 200.131 108.879C196.001 105.492 190.513 105.178 184.198 108.042C182.282 108.909 180.568 110.026 178.513 111.708C177.533 107.323 176.138 103.188 174.882 99.5205L174.881 99.5211ZM127.334 226.636C119.335 224.063 118.167 223.119 118.252 215.893C118.379 207.328 116.356 202.345 110.519 196.852C109.08 195.495 108.111 194.036 107.664 192.647C107.664 192.596 107.657 192.546 107.641 192.498C105.562 185.88 112.569 179.275 116.932 175.925C118.543 174.684 121.421 172.752 124.754 170.516C137.264 162.122 156.17 149.437 157.055 141.628L157.344 139.117C157.489 137.838 157.615 136.725 157.748 135.743C158.356 130.931 158.951 129.598 161.29 127.817C167.649 122.943 171.718 119.278 174.987 116.334C176.305 115.146 177.465 114.102 178.557 113.177C180.912 111.164 182.708 109.964 184.761 109.033C188.784 107.211 194.47 105.886 199.117 109.541C187.687 117.017 174.713 125.332 168.419 129.366C166.783 130.414 165.622 131.158 165.09 131.502C162.109 133.441 161.449 135.312 161.301 136.037C161.18 136.715 161.293 137.277 161.621 137.62C161.834 137.844 162.129 137.966 162.45 137.966C163.174 137.966 164.283 137.373 166.723 136.029C168.098 135.272 169.807 134.331 171.646 133.437C172.953 132.797 175.11 131.849 178.052 130.619C177.31 131.795 176.657 132.993 176.027 134.165C174.898 136.26 173.732 138.428 172.047 140.372C170.541 142.104 170.074 143.117 169.662 144.01C168.834 145.808 168.235 147.107 158.212 153.904C153.437 157.135 148.027 161.265 142.132 166.178C133.29 173.522 125.357 180.957 122.398 183.861C121.428 184.813 120.487 185.927 120.857 186.982C121.08 187.616 121.744 188.081 122.831 188.498C122.54 188.554 122.277 188.703 122.116 188.943C121.869 189.312 121.908 189.769 122.215 190.108C123.07 191.049 123.941 192.346 124.643 193.485C122.102 191.599 118.159 188.811 115.854 187.886C114.045 187.166 111.897 187.442 110.378 188.59C109.094 189.562 108.559 190.929 108.948 192.251C109.039 192.553 109.193 192.84 109.344 193.109C111.577 196.673 119.768 203.032 122.228 204.897C126.722 208.283 127.009 210.205 127.705 214.849L127.812 215.562C128.063 217.226 128.295 218.599 128.489 219.746C129.336 224.75 129.398 225.147 127.334 226.636ZM130.083 189.11C125.599 188.196 122.358 187.534 122.047 186.648C121.909 186.258 122.338 185.572 123.319 184.608C126.26 181.722 134.131 174.345 142.917 167.043C151.884 163.098 159.174 158.878 165.034 155.484C168.984 153.196 172.396 151.219 175.176 150.005C176.53 149.424 177.794 149.022 178.924 148.811C182.285 148.215 185.018 149.121 187.278 151.558C186.7 158.879 174.051 170.789 163.297 178.825C163.289 178.83 163.291 178.84 163.284 178.846C163.176 178.935 163.111 179.049 163.091 179.177C163.088 179.194 163.084 179.207 163.084 179.224C163.078 179.317 163.09 179.411 163.14 179.5C165.057 182.922 167.576 186.271 170.625 189.453C170.638 189.467 170.657 189.472 170.671 189.484C170.673 189.486 170.675 189.486 170.676 189.488C170.677 189.488 170.678 189.489 170.68 189.49C178.234 197.327 186.699 201.655 189.62 202.524C192.699 203.439 200.877 205.871 202.672 211.284C203.029 212.344 203.392 213.522 203.785 214.799C204.039 215.622 204.306 216.486 204.591 217.386C204.593 217.393 204.602 217.397 204.604 217.403C204.607 217.418 204.603 217.432 204.607 217.447C205.995 221.929 207.795 227.219 210.445 232.735C198.695 230.172 186.593 231.53 174.431 236.809L173.176 237.413L171.848 236.822C168.975 235.543 166.25 234.341 163.497 233.249C166.201 229.18 172.239 225.859 181.529 223.39C181.539 223.388 181.549 223.388 181.559 223.386C184.132 222.707 187.02 222.077 190.144 221.514C190.168 221.512 190.191 221.512 190.214 221.507L190.943 221.381C191.244 221.323 191.454 221.078 191.435 220.804C191.416 220.53 191.176 220.308 190.869 220.284C164.65 218.172 154.175 214.358 150.781 212.744C155.665 212.158 170.55 210.601 187.556 211.075C187.922 211.131 188.167 210.862 188.196 210.569C188.225 210.277 187.992 210.013 187.666 209.971C182.306 209.27 177.431 208.477 173.178 207.614C168.453 206.644 164.421 205.554 161.19 204.371C155.636 202.362 152.265 200.031 151.17 197.445C150.474 195.799 150.67 194.042 151.763 192.075C155.47 188.954 155.934 185.814 155.951 185.681C155.984 185.436 155.831 185.2 155.576 185.104C155.321 185.01 155.025 185.073 154.851 185.265C154.829 185.289 152.559 187.731 148.485 188.796C145.99 189.447 137.816 189.601 130.244 189.142L130.083 189.11ZM150.005 197.836C150.983 200.149 153.399 202.174 157.301 203.989C154.912 203.757 152.417 203.489 150.537 203.225C150.243 203.182 149.967 203.328 149.86 203.571C149.753 203.813 149.849 204.09 150.093 204.235C154.144 206.659 164.747 208.003 172.944 208.705C174.96 209.113 177.111 209.507 179.387 209.881C162.318 209.999 149.054 211.838 148.901 211.86C148.662 211.894 148.466 212.049 148.4 212.256C148.333 212.465 148.408 212.688 148.591 212.829C148.844 213.025 154.076 216.861 175.259 219.746C167.934 219.781 158.795 220.327 148.772 222.087C148.471 222.139 148.259 222.379 148.269 222.652C148.281 222.925 148.513 223.15 148.816 223.183C152.328 223.559 157.912 223.684 163.768 223.683C168.363 223.683 173.115 223.606 177.174 223.514C169.742 225.945 164.778 229.058 162.353 232.789C150.499 228.164 139.964 225.471 136.008 225.282C135.116 225.239 134.393 225.11 133.845 224.894C132.117 224.26 131.894 222.838 131.622 220.171C131.564 219.601 131.502 218.995 131.415 218.357C130.823 214.027 130.851 212.583 131.627 207.324C132.385 202.3 139.522 198.55 147.407 194.835C148.289 194.413 149.098 193.953 149.856 193.47C149.395 195.002 149.426 196.467 150.005 197.836ZM160.812 205.43C162.039 205.877 163.408 206.306 164.851 206.725C160.735 206.184 157.346 205.554 154.806 204.855C156.872 205.073 159.027 205.273 160.812 205.43ZM186.056 221.18C184.377 221.535 182.778 221.908 181.291 222.3C173.974 222.503 161.96 222.74 153.852 222.407C167.559 220.459 179.2 220.712 186.056 221.18ZM152.363 263.104C153.441 260.069 154.045 256.979 154.349 255.01C155.337 256.924 157.049 259.875 159.156 262.117C156.687 262.666 154.445 262.992 152.363 263.104ZM163.335 261.056C162.364 261.339 161.428 261.588 160.504 261.81C157.126 258.462 154.604 252.741 154.579 252.683C154.474 252.442 154.201 252.306 153.909 252.334C153.622 252.371 153.402 252.58 153.378 252.837C153.372 252.892 152.849 258.252 151.037 263.156C147.271 263.2 143.947 262.551 139.707 260.898C136.017 259.481 131.271 256.035 129.02 250.607C126.556 244.668 127.467 237.691 131.707 229.874C132.128 229.773 132.536 229.658 132.888 229.523C135.09 228.703 147.98 231.225 157.654 234.841L158.56 235.18C162.587 236.683 167.151 238.388 170.923 240.965C172.016 241.689 172.996 242.477 173.879 243.308C171.759 242.893 169.837 243.089 168.141 243.9C165.992 244.928 164.6 246.806 163.843 248.604C163.77 248.426 163.688 248.237 163.63 248.077C163.545 247.841 163.269 247.68 163.016 247.694C162.738 247.701 162.501 247.873 162.433 248.115C161.98 249.743 162.354 252.091 162.75 254.579C163.097 256.757 163.443 258.999 163.335 261.056ZM164.611 260.694C164.601 260.697 164.593 260.699 164.584 260.702C164.633 258.639 164.302 256.418 163.984 254.424C163.785 253.17 163.59 251.955 163.51 250.876L163.911 251.73C165.047 254.142 166.425 257.107 167.077 259.804C166.263 260.138 165.439 260.443 164.611 260.694ZM171.664 257.59C171.626 256.31 171.242 254.95 170.859 253.622C170.637 252.85 170.418 252.096 170.279 251.392C170.506 251.755 170.756 252.11 171.009 252.471C171.84 253.658 172.682 254.903 173.068 256.775C172.615 257.049 172.146 257.321 171.664 257.59ZM174.173 256.105C173.703 254.289 172.851 253.004 172.064 251.883C171.261 250.739 170.568 249.749 170.529 248.411C170.521 248.158 170.323 247.941 170.048 247.884C169.773 247.832 169.487 247.943 169.356 248.165C168.443 249.712 169.031 251.746 169.653 253.899C170.09 255.414 170.521 256.967 170.387 258.279C169.647 258.658 168.927 258.999 168.223 259.312C167.524 256.585 166.18 253.678 165.059 251.298L164.582 250.282C165.049 248.381 166.365 246.011 168.732 244.877C170.597 243.983 172.837 243.998 175.384 244.892C177.323 247.177 178.562 249.778 179.178 252.816C177.298 254.118 175.68 255.18 174.174 256.104L174.173 256.105ZM182.724 291.604C180.287 294.162 178.549 296.461 177.537 298.477C177.921 283.895 193.145 250.227 199.445 241.877C199.59 241.686 199.585 241.433 199.434 241.245C199.283 241.056 199.017 240.972 198.765 241.031C194.262 242.111 188.937 245.903 183.297 249.916C182.299 250.626 181.281 251.344 180.261 252.058C179.559 249.031 178.271 246.4 176.273 244.088C175.408 243.075 174.393 242.122 173.26 241.234C174.477 241.165 175.005 240.712 175.193 240.248C175.483 239.53 175.04 238.713 174.34 238.116L175 237.798C187.26 232.474 199.468 231.218 211.284 234.062C213.918 235.313 215.975 235.648 217.962 235.966C219.16 236.157 220.391 236.354 221.779 236.758C206.71 245.918 190.224 271.529 182.723 291.605L182.724 291.604ZM193.224 315.851C197.3 292.591 197.766 280.216 197.77 280.091C197.778 279.876 197.644 279.676 197.428 279.578C197.212 279.48 196.953 279.505 196.763 279.638C196.692 279.687 190.414 284.13 184.895 289.416C192.736 269.893 208.343 246.195 222.594 237.619C222.945 243.187 222.948 248.546 222.578 253.546C222.578 253.552 222.58 253.556 222.58 253.561C222.58 253.562 222.578 253.563 222.578 253.565C222.152 259.773 221.206 265.728 219.763 271.266C214.611 291.165 203.955 304.291 193.225 315.851H193.224ZM228.921 314.23C226.274 317.379 224.525 320.606 223.81 323.665C218.097 313.642 218.941 301.359 220.546 277.953L220.988 271.461C222.171 266.908 223.004 262.069 223.51 257.052C227.161 271.375 231.428 301.26 228.921 314.23ZM230.448 312.518C232.446 297.394 227.475 265.571 223.824 253.537C224.126 249.42 224.179 245.069 223.997 240.561C237.432 276.178 240.937 299.207 234.353 308.968C232.924 310.102 231.62 311.292 230.448 312.518ZM236.712 346.169L233.68 349.295C233.852 345.789 233.9 337.518 231.078 332.017C227.456 324.95 229.652 317.413 238.196 307.583C238.206 307.575 238.22 307.569 238.229 307.561C238.237 307.554 238.233 307.543 238.241 307.536C238.255 307.522 238.275 307.516 238.288 307.501C238.905 306.763 239.609 305.994 240.33 305.224C246.148 299.038 253.75 287.825 259.504 278.835C259.128 287.059 256.503 317.587 238.408 354.51C238.446 349.836 237.829 346.597 237.797 346.437C237.757 346.226 237.582 346.056 237.35 345.998C237.119 345.938 236.871 346.007 236.713 346.169H236.712ZM299.436 324.877L299.337 324.991C292.201 333.408 269.393 360.626 261.922 373.335L261.615 358.701C263.84 350.14 268.555 333.423 270.599 330.993C272.363 328.895 288.315 326.211 299.518 324.782C299.487 324.817 299.468 324.84 299.436 324.877ZM269.603 330.327C266.971 333.456 261.035 356.023 260.426 358.357C259.126 359.476 243.375 372.911 230.132 378.81C236.116 372.279 237.897 363.784 238.295 357.492C258.135 318.244 260.496 285.641 260.775 278.222L299.793 323.622C294.125 324.343 272.137 327.314 269.603 330.327ZM300.294 322.38L262.295 278.166C265.536 279.968 271.763 284.085 279.633 289.287L281.065 290.235C281.173 290.306 281.304 290.343 281.436 290.343C281.476 290.343 281.515 290.34 281.555 290.334C281.726 290.305 281.876 290.211 281.968 290.078C288.385 280.717 293.141 269.747 296.134 257.477C296.506 257.726 296.878 257.972 297.251 258.227C299.46 269.117 300.169 313.271 300.294 322.38ZM298.828 258.318C317.336 255.123 337.719 258.525 344.3 259.822C344.326 273.778 343.174 288.666 342.31 299.681C340.734 297.965 339.082 296.343 337.339 294.902C337.33 294.894 337.333 294.882 337.325 294.875C336.387 294.088 335.465 293.369 334.592 292.74C332.767 291.39 330.751 290.114 328.603 288.943C313.468 278.819 301.305 261.895 298.828 258.318ZM296.196 349.472C299.141 340.789 301.935 333.451 304.738 327.038L305.325 325.707C311.975 310.724 319.307 299.41 328.355 290.128C330.148 291.126 331.838 292.197 333.401 293.327C326.396 305.229 319.285 333.647 319.691 357.769C317.958 360.567 316.152 363.082 314.32 365.248C305.715 368.907 297.329 370.884 288.04 371.465C290.885 364.468 293.628 357.081 296.196 349.472ZM281.202 386.945C283.142 382.999 285.372 377.987 287.576 372.613C297.298 372.065 306.026 370.026 314.997 366.193C319.564 364.237 323.819 362 327.932 359.838C337.574 354.77 346.707 349.984 359.88 348.238C358.528 350.712 357.643 353.037 356.939 354.938C356.32 356.612 355.782 358.069 355.092 359.162C321.751 368.421 288.782 383.41 281.2 386.946L281.202 386.945Z" fill="#65785E" stroke="#65785E" stroke-miterlimit="10"/>
<path d="M203.824 116.839L204.416 116.823C213.326 116.526 215.608 117.505 224.552 121.384L227.681 122.736C227.767 122.772 227.859 122.791 227.951 122.791C228.05 122.791 228.148 122.77 228.238 122.728C228.411 122.648 228.533 122.499 228.565 122.327C229.358 118.108 227.668 108.659 223.215 103.453C222.663 102.808 222.077 102.242 221.475 101.77C221.308 101.639 221.077 101.598 220.87 101.659C215.319 103.279 206.76 112.18 203.339 115.931C203.187 116.097 203.157 116.327 203.26 116.52C203.362 116.714 203.581 116.837 203.822 116.837L203.824 116.839ZM220.922 102.823C221.37 103.202 221.807 103.638 222.226 104.128C226.169 108.736 227.873 117.148 227.443 121.399L225.098 120.386C216.95 116.852 214.206 115.662 207.152 115.662C206.53 115.662 205.874 115.672 205.179 115.69C208.459 112.176 216.016 104.502 220.922 102.824V102.823Z" fill="#65785E" stroke="#65785E" stroke-miterlimit="10"/>
<path d="M462.544 124.854C462.522 125.081 462.657 125.296 462.884 125.399L501.247 142.668C501.335 142.709 501.432 142.728 501.528 142.728C501.679 142.728 501.828 142.679 501.946 142.584C502.137 142.43 502.201 142.187 502.109 141.973C501.809 141.278 494.715 124.896 491.802 121.308C491.116 120.459 489.562 120.045 487.054 120.045C479.043 120.045 463.636 124.195 462.984 124.371C462.74 124.437 462.566 124.628 462.545 124.855L462.544 124.854ZM487.054 121.156C489.742 121.156 490.549 121.658 490.792 121.958C493.138 124.847 498.558 136.941 500.356 141.022L464.852 125.04C468.995 123.983 480.659 121.156 487.054 121.156Z" fill="#65785E" stroke="#65785E" stroke-miterlimit="10"/>
<path d="M533.704 133.802C533.456 133.872 533.283 134.073 533.271 134.305L532.488 148.987C532.476 149.201 532.603 149.401 532.815 149.503C532.908 149.546 533.009 149.569 533.11 149.569C533.239 149.569 533.368 149.533 533.476 149.462L542.159 143.811C542.296 143.723 542.386 143.589 542.41 143.439C542.433 143.29 542.388 143.139 542.284 143.02L534.384 133.988C534.224 133.805 533.951 133.731 533.704 133.801V133.802ZM540.906 143.252L533.794 147.88L534.434 135.853L540.905 143.251L540.906 143.252Z" fill="#65785E" stroke="#65785E" stroke-miterlimit="10"/>
<path d="M578.354 169.67C578.427 169.825 578.575 169.944 578.758 169.99L597.672 174.848C597.728 174.862 597.787 174.87 597.844 174.87C597.998 174.87 598.149 174.82 598.264 174.724C598.424 174.593 598.497 174.398 598.456 174.209L594.115 154.066C594.069 153.858 593.896 153.691 593.665 153.634C593.432 153.58 593.19 153.645 593.033 153.805C591.606 155.263 579.072 168.073 578.384 169.188C578.293 169.336 578.282 169.513 578.355 169.669L578.354 169.67ZM593.132 155.395L597.04 173.529L579.956 169.141C581.788 167.068 588.277 160.359 593.132 155.394L593.132 155.395Z" fill="#65785E" stroke="#65785E" stroke-miterlimit="10"/>
<path d="M598.168 195.978L606.727 212.343C606.823 212.526 607.022 212.648 607.248 212.662C607.263 212.663 607.277 212.664 607.292 212.664C607.501 212.664 607.698 212.569 607.814 212.411L616.498 200.506C616.605 200.359 616.628 200.175 616.559 200.009C616.491 199.845 616.339 199.719 616.149 199.67L598.907 195.21C598.672 195.146 598.419 195.215 598.261 195.382C598.102 195.547 598.066 195.78 598.168 195.977V195.978ZM614.995 200.528L607.383 210.967L599.877 196.618L614.995 200.528Z" fill="#65785E" stroke="#65785E" stroke-miterlimit="10"/>
<path d="M331.438 47.4573C331.557 47.5992 331.743 47.6794 331.936 47.6794C331.985 47.6794 332.034 47.6739 332.081 47.6636C332.307 47.6157 354.224 40.4628 353.908 37.7483C353.609 35.1812 351.71 30.9306 347.703 29.7393C347.514 29.6824 347.311 29.6543 347.1 29.6543C342.545 29.6543 332.524 45.0883 331.396 46.8479C331.272 47.0412 331.289 47.2798 331.438 47.4573ZM347.099 30.7661C347.177 30.7661 347.245 30.7757 347.308 30.7942C351.164 31.9403 352.485 36.2862 352.673 37.7977C352.113 39.279 338.184 44.4776 333.317 46.1097C337.562 39.6923 344.399 30.7661 347.099 30.7661Z" fill="#65785E" stroke="#65785E" stroke-miterlimit="10"/>
<path d="M556.723 122.616H567.114C567.302 122.616 567.48 122.54 567.599 122.41C568.223 121.723 582.916 105.553 584.996 102.508C585.079 102.384 585.335 102.009 585.102 101.639C585.038 101.538 584.842 101.301 584.409 101.301C582.208 101.301 558.43 116.028 556.135 121.877C556.069 122.048 556.098 122.235 556.215 122.382C556.333 122.529 556.522 122.616 556.723 122.616ZM583.255 102.829C579.925 107.04 568.427 119.73 566.817 121.505H557.697C560.966 116.35 578.31 105.133 583.255 102.829Z" fill="#65785E" stroke="#65785E" stroke-miterlimit="10"/>
<path d="M613.076 305.693C613.204 305.693 613.333 305.659 613.442 305.588C613.677 305.435 613.762 305.159 613.649 304.921C606.537 290.01 607.6 275.955 607.612 275.814C607.632 275.572 607.472 275.346 607.219 275.258C606.895 275.143 574.639 263.829 557.992 261.984C557.725 261.95 557.459 262.086 557.347 262.31C557.235 262.535 557.301 262.797 557.508 262.956C557.508 262.956 601.546 296.956 612.668 305.558C612.785 305.648 612.931 305.693 613.076 305.693ZM559.929 263.356C575.795 265.655 602.676 274.871 606.345 276.145C606.232 278.472 605.983 290.291 611.53 303.206C599.604 293.987 567.485 269.189 559.93 263.355L559.929 263.356Z" fill="#65785E" stroke="#65785E" stroke-miterlimit="10"/>
<path d="M617.09 331.744L617.541 331.739C617.773 331.734 617.984 331.614 618.085 331.426C618.186 331.238 618.162 331.016 618.022 330.851L595.359 303.897C595.005 303.411 594.288 303.167 593.228 303.167C590.099 303.167 584.353 305.359 582.146 309.323C580.915 311.535 580.308 315.186 584.412 320.011C593.895 331.178 613.297 331.744 617.09 331.744ZM583.261 309.816C585.315 306.128 590.757 304.276 593.227 304.276C593.957 304.276 594.258 304.425 594.339 304.533L616.274 330.624C611.188 330.531 593.988 329.448 585.404 319.339C582.418 315.83 581.698 312.625 583.261 309.816Z" fill="#65785E" stroke="#65785E" stroke-miterlimit="10"/>
<path d="M564.419 332.505C564.231 332.353 563.959 332.314 563.728 332.417C563.498 332.516 563.361 332.73 563.379 332.956L564.714 349.353C564.735 349.62 564.967 349.835 565.265 349.864L575.781 350.927C575.805 350.931 575.828 350.931 575.852 350.931C576.023 350.931 576.186 350.869 576.305 350.757C576.439 350.631 576.499 350.455 576.466 350.283C574.671 340.931 564.838 332.845 564.42 332.505H564.419ZM565.918 348.812L564.741 334.348C567.321 336.72 573.432 342.915 575.078 349.739L565.918 348.812Z" fill="#65785E" stroke="#65785E" stroke-miterlimit="10"/>
<path d="M533.415 328.53C533.27 328.42 533.078 328.37 532.892 328.403C532.704 328.434 532.543 328.54 532.454 328.69C532.398 328.783 526.778 338.096 514.961 342.726C514.673 342.839 514.524 343.124 514.614 343.394C514.703 343.662 515.004 343.833 515.314 343.781C515.599 343.739 515.96 343.721 516.392 343.721C525.175 343.721 560.963 351.629 561.323 351.71C561.374 351.721 561.424 351.726 561.474 351.726C561.701 351.726 561.917 351.614 562.026 351.428C562.159 351.201 562.1 350.922 561.884 350.752L533.414 328.531L533.415 328.53ZM517.948 342.667C526.935 338.4 531.814 331.842 533.169 329.815L559.142 350.088C551.263 348.379 527.158 343.266 517.948 342.667Z" fill="#65785E" stroke="#65785E" stroke-miterlimit="10"/>
<path d="M555.42 374.103C551.042 371.801 544.816 367.594 538.224 363.14C528.365 356.48 518.171 349.592 511.586 347.21C510.906 346.962 510.183 346.747 509.381 346.554C501.629 344.631 492.761 346.63 488.163 347.991C486.399 348.517 485.35 348.91 485.305 348.927C485.098 349.006 484.953 349.178 484.929 349.378C484.904 349.578 485.003 349.775 485.188 349.892C485.382 350.016 504.682 362.238 511.127 366.687C515.583 369.766 524.081 371.954 537.868 373.577C537.888 373.582 537.904 373.593 537.925 373.595C541.531 374.002 545.544 374.387 549.851 374.739C549.854 374.739 549.857 374.739 549.86 374.739C549.866 374.739 549.871 374.74 549.876 374.741C549.894 374.743 549.908 374.752 549.926 374.754C551.582 374.881 553.291 375.008 555.053 375.135C555.07 375.136 555.086 375.136 555.103 375.136C555.372 375.136 555.614 374.981 555.696 374.749C555.784 374.502 555.67 374.234 555.42 374.103ZM511.89 365.81C506.248 361.914 490.819 352.102 486.849 349.582C487.252 349.448 487.774 349.282 488.373 349.102C495.833 350.901 504.543 356.782 510.917 361.088L512.755 362.328C516.95 365.132 523.326 368.748 531.43 371.592C521.711 370.116 515.42 368.247 511.89 365.81ZM538.126 372.495V372.494C527.119 369.601 518.659 364.886 513.503 361.438L511.668 360.203C505.699 356.169 497.708 350.779 490.454 348.519C495.113 347.311 502.314 346.076 508.727 347.566C510.884 353.766 518.452 364.734 544.576 373.157C542.314 372.945 540.151 372.724 538.126 372.495ZM550.077 373.65C520.602 365.298 512.43 353.525 510.176 347.929C510.501 348.027 510.814 348.129 511.116 348.24C517.55 350.566 528.134 357.717 537.472 364.025C543.064 367.804 548.394 371.405 552.591 373.841C551.74 373.777 550.902 373.713 550.078 373.65H550.077Z" fill="#65785E" stroke="#65785E" stroke-miterlimit="10"/>
<path d="M480.336 351.864C480.251 351.695 480.081 351.575 479.877 351.542C479.674 351.51 479.466 351.57 479.321 351.7C476.912 353.89 455.848 373.279 458.123 379.514C458.183 379.679 458.325 379.809 458.507 379.866C458.575 379.888 458.646 379.897 458.716 379.897C458.834 379.897 458.952 379.867 459.054 379.808C470.033 373.481 489.804 373.279 490.001 373.278C490.212 373.278 490.406 373.182 490.52 373.024C490.634 372.867 490.651 372.669 490.567 372.498L480.335 351.863L480.336 351.864ZM459.181 378.431C459.085 373.127 473.123 359.011 479.568 353.066L489.049 372.186C485.008 372.294 469.257 373.058 459.181 378.431Z" fill="#65785E" stroke="#65785E" stroke-miterlimit="10"/>
<path d="M512.726 309.598C512.539 309.601 512.369 309.646 512.242 309.761L493.861 326.173C493.659 326.353 493.621 326.635 493.769 326.854C493.884 327.022 494.088 327.12 494.302 327.12C494.363 327.12 494.426 327.113 494.488 327.096L520.591 319.811C520.785 319.756 520.936 319.623 520.998 319.451C521.06 319.279 521.024 319.089 520.901 318.945L513.179 309.818C513.071 309.69 512.906 309.611 512.726 309.598ZM496.53 325.361L512.616 310.997L519.375 318.985L496.53 325.361Z" fill="#65785E" stroke="#65785E" stroke-miterlimit="10"/>
<path d="M469.147 316.703C467.053 315.474 462.081 314.876 453.948 314.876C442.719 314.876 429.426 316.079 429.293 316.09C429.011 316.116 428.784 316.308 428.741 316.559C428.698 316.809 428.85 317.053 429.111 317.153C431.074 317.906 477.326 335.604 489.301 335.604C489.567 335.604 489.817 335.594 490.05 335.578C490.288 335.56 490.494 335.423 490.579 335.223C490.665 335.022 490.615 334.798 490.451 334.643C489.832 334.057 475.207 320.269 469.148 316.704L469.147 316.703ZM431.87 316.992C436.231 316.646 445.66 315.988 453.948 315.988C463.629 315.988 467.185 316.882 468.462 317.631C473.504 320.599 485.077 331.24 488.545 334.471C477.335 333.854 441.29 320.536 431.87 316.992H431.87Z" fill="#65785E" stroke="#65785E" stroke-miterlimit="10"/>
<path d="M457.286 341.773C443.376 337.383 423.943 316.752 423.748 316.544C423.573 316.358 423.283 316.296 423.031 316.388C422.779 316.482 422.625 316.71 422.65 316.952C422.669 317.132 423.203 321.455 431.359 332.677C439.373 343.744 445.028 358.207 445.084 358.351C445.17 358.574 445.405 358.724 445.669 358.724H445.673C445.935 358.724 446.171 358.577 446.259 358.357C446.294 358.27 449.86 349.537 457.519 342.689C457.67 342.554 457.732 342.36 457.686 342.174C457.639 341.988 457.487 341.837 457.286 341.773ZM445.704 356.619C444.082 352.719 439.05 341.251 432.404 332.074C427.709 325.612 425.59 321.478 424.643 319.172C429.747 324.348 444.277 338.355 455.968 342.517C450.343 347.783 446.998 353.938 445.704 356.619Z" fill="#65785E" stroke="#65785E" stroke-miterlimit="10"/>
<path d="M571.252 358.249C571.106 358.121 570.901 358.065 570.696 358.099C570.496 358.134 570.325 358.254 570.244 358.424L562.682 373.884C562.596 374.061 562.617 374.264 562.741 374.424C562.858 374.572 563.049 374.661 563.253 374.661H563.287L587.078 373.486C587.323 373.474 587.538 373.333 587.625 373.128C587.712 372.922 587.655 372.69 587.479 372.536L571.251 358.251L571.252 358.249ZM564.228 373.5L571.024 359.609L585.605 372.445L564.228 373.5Z" fill="#65785E" stroke="#65785E" stroke-miterlimit="10"/>
<path d="M583.484 357.201C583.504 357.201 583.524 357.201 583.544 357.199C585.515 357.029 631.949 352.898 643.768 342.162C643.926 342.018 643.985 341.811 643.921 341.617C643.858 341.423 643.682 341.276 643.462 341.232C624.652 337.417 622.124 332.669 622.105 332.631C622.034 332.472 621.887 332.353 621.705 332.305C621.52 332.257 621.325 332.285 621.168 332.383L583.126 356.192C582.895 356.336 582.802 356.602 582.9 356.838C582.992 357.058 583.225 357.201 583.484 357.201ZM621.345 333.629C622.533 335.072 626.962 338.88 642.05 342.08C630.972 350.694 595.42 354.872 585.826 355.859L621.345 333.629Z" fill="#65785E" stroke="#65785E" stroke-miterlimit="10"/>
<path d="M403.724 380.568C403.673 380.29 403.417 380.088 403.08 380.104C402.751 380.118 369.751 381.572 340.221 388.854C339.95 388.921 339.763 389.141 339.764 389.39C339.765 389.641 339.955 389.86 340.225 389.925C343.426 390.694 349.989 391.083 359.733 391.083H359.735C378.953 391.083 404.444 389.562 404.699 389.546C404.874 389.536 405.037 389.459 405.145 389.336C405.254 389.213 405.3 389.056 405.271 388.9L403.723 380.567L403.724 380.568ZM359.734 389.974C352.273 389.974 346.72 389.747 343.156 389.299C369.746 383.085 398.287 381.457 402.587 381.24L403.931 388.477C399.735 388.719 377.148 389.974 359.734 389.974Z" fill="#65785E" stroke="#65785E" stroke-miterlimit="10"/>
<path d="M374.18 351.507C374.085 351.602 364.573 360.895 360.589 365.014C358.511 367.191 357.799 369.224 358.586 370.743C359.275 372.075 361.064 372.807 363.624 372.807C364.235 372.807 364.896 372.766 365.593 372.686C372.779 371.861 375.027 353.975 375.26 351.938C375.287 351.701 375.14 351.474 374.895 351.376C374.651 351.28 374.363 351.332 374.181 351.507H374.18ZM365.432 371.585C362.43 371.923 360.318 371.443 359.716 370.279C359.153 369.192 359.817 367.535 361.535 365.737C364.617 362.55 371.031 356.242 373.792 353.537C372.876 359.618 370.195 371.036 365.432 371.585Z" fill="#65785E" stroke="#65785E" stroke-miterlimit="10"/>
<path d="M442.631 365.05C442.575 364.852 442.403 364.696 442.18 364.647L394.598 353.931C394.392 353.886 394.173 353.937 394.019 354.066C393.864 354.196 393.795 354.388 393.834 354.575C393.94 355.066 396.576 366.724 411.58 377.569C411.589 377.574 411.597 377.58 411.606 377.586C411.607 377.586 411.607 377.587 411.609 377.587C422.376 385.371 436.692 390.665 454.165 393.319C454.199 393.325 454.234 393.326 454.269 393.326C454.474 393.326 454.669 393.236 454.786 393.082C454.923 392.902 454.928 392.665 454.8 392.48C447.377 381.76 442.678 365.216 442.632 365.05H442.631ZM395.304 355.236L434.851 364.141C427.219 370.64 418.24 374.764 412.105 376.509C400.005 367.663 396.216 358.12 395.304 355.236ZM413.282 377.32C419.68 375.37 428.702 371.105 436.291 364.465L441.516 365.642C442.193 367.945 446.483 382.017 453.032 392.013C436.841 389.402 423.499 384.449 413.282 377.319V377.32Z" fill="#65785E" stroke="#65785E" stroke-miterlimit="10"/>
<path d="M577.398 313.18L552.701 264.165C552.603 263.971 552.39 263.844 552.151 263.838C551.923 263.829 551.691 263.947 551.581 264.136L524.001 311.151C523.913 311.301 523.906 311.478 523.983 311.633C524.06 311.788 524.211 311.903 524.395 311.947L564.645 321.279C564.696 321.292 564.749 321.296 564.801 321.296C564.925 321.296 565.047 321.264 565.152 321.2L577.181 313.867C577.43 313.715 577.521 313.426 577.398 313.18ZM564.685 320.14L525.467 311.047L546.402 275.362L566.311 319.149L564.686 320.14H564.685ZM567.363 318.507L547.158 274.071L552.09 265.664L576.048 313.212L567.363 318.506V318.507Z" fill="#65785E" stroke="#65785E" stroke-miterlimit="10"/>
<path d="M524.654 234.082C524.361 234.13 524.147 234.356 524.143 234.621L523.039 304.667C523.035 304.923 523.228 305.149 523.506 305.213C523.558 305.225 523.611 305.23 523.662 305.23C523.887 305.23 524.1 305.122 524.211 304.937L542.681 274.176C542.767 274.032 542.778 273.861 542.712 273.711L525.345 234.426C525.236 234.178 524.946 234.034 524.654 234.082ZM524.321 302.401L525.344 237.451L541.447 273.878L524.321 302.401Z" fill="#65785E" stroke="#65785E" stroke-miterlimit="10"/>
<path d="M563.217 236.088C562.975 236.015 562.709 236.083 562.544 236.258C562.38 236.431 562.352 236.678 562.473 236.878C577.007 260.995 605.689 269.584 605.977 269.668C606.026 269.682 606.076 269.685 606.125 269.688C606.143 269.689 606.157 269.706 606.175 269.706C606.202 269.706 606.224 269.681 606.251 269.678C606.357 269.665 606.453 269.627 606.539 269.569C606.564 269.553 606.598 269.559 606.62 269.539C606.632 269.529 606.627 269.512 606.638 269.501C606.644 269.495 606.652 269.492 606.658 269.486C606.742 269.392 606.784 269.278 606.789 269.163C606.791 269.129 606.77 269.103 606.764 269.069C606.753 268.996 606.75 268.92 606.705 268.854L583.591 234.346C583.484 234.187 583.294 234.085 583.086 234.076C582.884 234.057 582.678 234.152 582.554 234.303C582.394 234.499 582.235 234.714 582.068 234.943C580.992 236.408 579.653 238.234 574.889 238.234C571.942 238.234 568.014 237.511 563.217 236.088ZM583.024 235.666L604.728 268.069C598.605 265.918 576.781 257.135 564.327 237.574C568.617 238.764 572.084 239.343 574.89 239.343C580.189 239.343 581.914 237.175 583.024 235.666Z" fill="#65785E" stroke="#65785E" stroke-miterlimit="10"/>
<path d="M512.704 178.537C512.548 178.721 512.536 178.973 512.675 179.169C512.757 179.284 520.926 190.884 526.315 209.926C527.64 214.655 528.707 219.523 529.487 224.393C529.527 224.634 529.737 224.824 530.006 224.863C530.039 224.868 530.072 224.87 530.105 224.87C530.339 224.87 530.557 224.751 530.663 224.56C537.181 212.761 576.24 196.205 576.634 196.039C576.868 195.941 577.008 195.725 576.989 195.494C576.969 195.265 576.792 195.07 576.544 195.004L550.408 188.109C550.398 188.104 550.385 188.103 550.375 188.1L513.377 178.338C513.126 178.272 512.859 178.352 512.704 178.537ZM574.642 195.661C567.626 198.709 538.262 211.913 530.456 222.649C529.709 218.325 528.735 214.014 527.562 209.808C530.153 200.882 538.179 193.577 550.188 189.209L574.642 195.661ZM548.319 188.716C537.501 192.962 530.018 199.628 526.955 207.738C522.565 193.119 516.679 183.142 514.542 179.804L548.319 188.716Z" fill="#65785E" stroke="#65785E" stroke-miterlimit="10"/>
<path d="M536.884 226.814C536.636 226.957 536.533 227.235 536.639 227.48L549.326 257.05C549.414 257.258 549.632 257.398 549.881 257.407L570.789 258.201H570.815C571.061 258.201 571.284 258.072 571.384 257.87C571.489 257.663 571.438 257.418 571.258 257.255L537.664 226.89C537.457 226.703 537.131 226.672 536.884 226.814L536.884 226.814ZM569.26 257.031L550.342 256.313L538.865 229.558L569.26 257.031Z" fill="#65785E" stroke="#65785E" stroke-miterlimit="10"/>
<path d="M553.011 182.536C553.011 182.536 553.46 182.543 554.232 182.543C561.34 182.543 573.574 182.091 575.652 179.061C575.957 178.618 576.208 177.894 575.676 176.965C574.992 175.778 573.597 175.177 571.528 175.177C564.978 175.177 553.207 181.243 552.709 181.501C552.468 181.626 552.349 181.88 552.419 182.121C552.49 182.363 552.732 182.532 553.011 182.537V182.536ZM571.528 176.287C573.113 176.287 574.108 176.675 574.567 177.472C574.855 177.976 574.732 178.276 574.591 178.481C573.405 180.208 565.946 181.346 555.444 181.427C559.157 179.67 566.902 176.287 571.528 176.287Z" fill="#65785E" stroke="#65785E" stroke-miterlimit="10"/>
<path d="M531.554 174.336C532.168 174.336 532.793 174.289 533.409 174.197C537.739 173.561 537.86 171.163 537.793 170.444C537.587 168.202 534.943 166.107 532.587 166.5C525.539 167.68 525.011 170.036 525.111 170.995C525.307 172.869 528.137 174.336 531.554 174.336ZM532.817 167.592C532.939 167.571 533.063 167.562 533.187 167.562C534.718 167.562 536.418 169.063 536.553 170.535C536.674 171.854 535.485 172.765 533.204 173.101C532.654 173.184 532.099 173.225 531.554 173.225C528.588 173.225 526.469 172.019 526.352 170.892C526.242 169.839 527.883 168.418 532.817 167.592Z" fill="#65785E" stroke="#65785E" stroke-miterlimit="10"/>
<path d="M502.91 162.856C504.408 166.881 506.062 169.758 507.697 171.177C508.423 171.796 509.134 172.109 509.812 172.11C510.491 172.11 511.097 171.784 511.517 171.192C512.753 169.453 512.663 164.895 509.534 158.981C508.325 156.893 504.798 153.06 502.662 153.06C502.389 153.06 502.138 153.117 501.922 153.225C500.897 153.723 500.081 155.268 502.91 162.856ZM502.662 154.172C503.959 154.172 507.155 157.294 508.419 159.474C511.177 164.689 511.532 169.098 510.466 170.599C510.184 170.996 509.907 170.998 509.814 170.998H509.813C509.476 170.998 509.03 170.777 508.562 170.378C507.713 169.639 506.003 167.635 504.093 162.505C501.264 154.914 502.465 154.226 502.662 154.172Z" fill="#65785E" stroke="#65785E" stroke-miterlimit="10"/>
<path d="M516.593 133.227C516.887 134.027 517.633 134.486 518.641 134.486C519.552 134.486 520.656 134.115 521.919 133.383C524.316 132 525.445 130.26 524.938 128.732C524.373 127.024 521.805 126.418 519.737 127.707C517.03 129.474 516.097 131.87 516.593 133.226V133.227ZM522.144 128.084C522.923 128.084 523.55 128.463 523.744 129.047C524.008 129.842 523.489 131.154 521.243 132.451C519.923 133.216 519.1 133.376 518.642 133.376C518.03 133.376 517.856 133.094 517.778 132.882C517.478 132.062 518.126 130.136 520.461 128.611C521.015 128.266 521.596 128.084 522.144 128.084Z" fill="#65785E" stroke="#65785E" stroke-miterlimit="10"/>
<path d="M515.777 109.801H515.778C517.26 109.801 518.659 109.298 519.52 108.455C520.206 107.782 520.518 106.937 520.422 106.01C520.074 102.701 516.818 96.2512 514.619 96.2512C514.22 96.2512 513.514 96.4295 513.263 97.6263C512.554 101.015 512.086 103.255 511.638 104.726C511.075 106.569 511.617 107.726 512.171 108.373C512.949 109.281 514.263 109.802 515.777 109.802V109.801ZM512.84 105.016C513.28 103.569 513.708 101.557 514.488 97.8299C514.556 97.505 514.642 97.3864 514.635 97.3631C515.617 97.4988 518.807 102.559 519.181 106.112C519.246 106.729 519.05 107.264 518.6 107.706C517.98 108.313 516.899 108.69 515.779 108.69C514.655 108.69 513.701 108.328 513.161 107.698C512.611 107.056 512.501 106.128 512.84 105.016H512.84Z" fill="#65785E" stroke="#65785E" stroke-miterlimit="10"/>
<path d="M492.602 96.1436H492.604C493.194 96.1436 493.84 96.1038 494.524 96.0264C494.746 96.0017 494.937 95.8714 495.022 95.6864C495.108 95.5013 495.074 95.2895 494.936 95.1325C491.599 91.3432 492.881 87.4114 494.544 84.7805C494.685 84.5571 494.636 84.2767 494.426 84.1019C494.215 83.9264 493.9 83.9024 493.658 84.0443C489.871 86.2735 486.488 90.6543 487.487 93.6238C487.874 94.7733 489.075 96.1436 492.602 96.1443V96.1436ZM492.355 86.3866C491.423 88.7288 491.034 91.8813 493.31 95.0125C493.066 95.0256 492.831 95.0317 492.605 95.0317C490.386 95.0317 489.066 94.4498 488.68 93.3037C488.085 91.5358 489.742 88.5965 492.356 86.3866H492.355Z" fill="#65785E" stroke="#65785E" stroke-miterlimit="10"/>
<path d="M470.012 106.37C470.323 106.37 470.791 106.318 471.34 106.253C472.047 106.171 472.928 106.068 473.735 106.068C474.577 106.068 475.2 106.181 475.584 106.4C476.303 106.815 477.247 107.053 478.171 107.053C479.41 107.053 480.438 106.63 480.918 105.92C481.239 105.446 481.473 104.627 480.763 103.423C480.065 102.225 478.596 101.539 476.734 101.539C473.95 101.539 470.972 102.961 469.396 105.001C469.262 105.121 468.851 105.487 469.057 105.93C469.262 106.37 469.826 106.37 470.012 106.37ZM476.734 102.65C477.547 102.65 479.006 102.817 479.66 103.938C479.902 104.351 480.133 104.93 479.853 105.345C479.385 106.037 477.385 106.114 476.258 105.466C475.659 105.123 474.834 104.957 473.735 104.957C472.845 104.957 471.92 105.065 471.177 105.152C471.044 105.167 470.917 105.182 470.795 105.196C472.264 103.672 474.607 102.65 476.734 102.65L476.734 102.65Z" fill="#65785E" stroke="#65785E" stroke-miterlimit="10"/>
<path d="M443.687 75.2355C444.082 75.3596 444.501 75.4213 444.934 75.4213H444.934C450.675 75.4213 458.054 64.0905 458.365 63.6079C458.498 63.4022 458.469 63.1445 458.296 62.9656C458.121 62.7874 457.838 62.7264 457.593 62.8155C455.898 63.4262 441.045 68.8915 441.109 72.8494C441.124 73.8714 441.988 74.6741 443.687 75.2355ZM456.299 64.5045C453.692 68.1656 448.561 74.3108 444.934 74.3108C444.642 74.3108 444.361 74.269 444.111 74.1908C442.953 73.807 442.363 73.3505 442.354 72.8336C442.32 70.6442 450.273 66.8303 456.299 64.5045Z" fill="#65785E" stroke="#65785E" stroke-miterlimit="10"/>
<path d="M557.772 141.409C560.078 141.409 561.954 139.849 561.954 137.933C561.954 136.016 560.078 134.472 557.772 134.472C555.466 134.472 553.591 136.025 553.591 137.933C553.591 139.84 555.466 141.409 557.772 141.409ZM557.772 135.584C559.391 135.584 560.709 136.638 560.709 137.933C560.709 139.236 559.391 140.298 557.772 140.298C556.153 140.298 554.836 139.236 554.836 137.933C554.836 136.638 556.153 135.584 557.772 135.584Z" fill="#65785E" stroke="#65785E" stroke-miterlimit="10"/>
<path d="M615.923 249.185C615.923 247.615 612.676 246.901 609.659 246.901C606.643 246.901 603.414 247.615 603.414 249.185C603.414 250.675 606.556 251.455 609.659 251.455C612.762 251.455 615.923 250.675 615.923 249.185ZM604.659 249.185C604.659 248.845 606.412 248.01 609.659 248.01C612.907 248.01 614.677 248.844 614.677 249.185C614.677 249.483 612.952 250.344 609.659 250.344C606.412 250.344 604.659 249.521 604.659 249.185Z" fill="#65785E" stroke="#65785E" stroke-miterlimit="10"/>
<path d="M535.085 128.713C537.145 128.713 538.822 126.975 538.822 124.84C538.822 122.705 537.145 120.983 535.085 120.983C533.025 120.983 531.348 122.714 531.348 124.84C531.348 126.966 533.025 128.713 535.085 128.713ZM535.085 122.094C536.459 122.094 537.576 123.326 537.576 124.84C537.576 126.336 536.435 127.602 535.085 127.602C533.711 127.602 532.594 126.363 532.594 124.84C532.594 123.326 533.711 122.094 535.085 122.094Z" fill="#65785E" stroke="#65785E" stroke-miterlimit="10"/>
<path d="M535.815 110.982C536.983 110.982 537.932 110.021 537.932 108.84C537.932 107.658 536.982 106.697 535.815 106.697C534.657 106.697 533.714 107.658 533.714 108.84C533.714 110.021 534.657 110.982 535.815 110.982ZM535.815 107.808C536.287 107.808 536.686 108.28 536.686 108.84C536.686 109.399 536.287 109.871 535.815 109.871C535.351 109.871 534.961 109.399 534.961 108.84C534.961 108.28 535.352 107.808 535.815 107.808Z" fill="#65785E" stroke="#65785E" stroke-miterlimit="10"/>
<path d="M603.432 132.41C605.905 132.41 607.916 130.501 607.916 128.156C607.916 125.81 605.905 123.886 603.432 123.886C600.96 123.886 598.966 125.801 598.966 128.156C598.966 130.51 600.969 132.41 603.432 132.41ZM603.432 124.997C605.218 124.997 606.671 126.414 606.671 128.155C606.671 129.896 605.218 131.298 603.432 131.298C601.657 131.298 600.212 129.888 600.212 128.155C600.212 126.422 601.657 124.997 603.432 124.997Z" fill="#65785E" stroke="#65785E" stroke-miterlimit="10"/>
<path d="M586.865 214.917C586.865 212.571 584.318 210.663 581.189 210.663C578.059 210.663 575.53 212.571 575.53 214.917C575.53 217.263 578.069 219.187 581.189 219.187C584.308 219.187 586.865 217.272 586.865 214.917ZM576.776 214.917C576.776 213.184 578.756 211.774 581.189 211.774C583.623 211.774 585.619 213.184 585.619 214.917C585.619 216.65 583.632 218.075 581.189 218.075C578.747 218.075 576.776 216.658 576.776 214.917Z" fill="#65785E" stroke="#65785E" stroke-miterlimit="10"/>
</g>
</svg>
