<svg width="114" height="73" viewBox="0 0 114 73" fill="none" xmlns="http://www.w3.org/2000/svg">
<path d="M1.74273 65.295C2.23279 64.6753 2.79464 64.1119 3.41505 63.6214C2.83507 64.0065 2.18887 64.3929 1.49387 64.336C0.798868 64.2791 0.137328 63.5423 0.429409 62.9115C0.50121 62.7561 0.622504 62.6222 0.665724 62.4557C0.747981 62.1379 0.523517 61.8284 0.46287 61.5058C0.36458 60.9819 0.784229 60.4206 1.31611 60.3637C1.07143 59.9272 0.817689 59.4381 0.929224 58.9503C1.05609 58.3952 1.59843 58.058 2.05154 57.7103C3.5482 56.5634 4.37286 54.8176 4.96399 53.0788C5.22889 52.2989 5.44987 51.6266 5.86673 50.923C6.19994 50.3603 6.59728 48.9358 7.16053 48.6096C8.56377 47.7978 10.0144 46.7397 11.0893 45.5282C12.0883 44.4021 11.8317 42.9311 11.5731 41.5433C10.4752 35.6622 10.9917 29.2141 14.4075 24.2932C14.8251 23.6916 15.2886 23.1116 15.8714 22.6661C16.5629 22.1374 17.391 21.8217 18.206 21.5129C20.9197 20.4867 23.6412 19.4639 26.4386 18.6833C27.8614 18.2865 29.303 17.9506 30.762 17.7133C31.8257 17.5405 33.4541 17.6238 34.4287 17.2352C34.4726 17.2179 34.5249 17.2089 34.5688 17.2262C36.9968 16.8259 39.5878 16.5483 42.0249 16.5816C48.7184 15.8531 55.476 15.223 62.0907 14.5868C62.488 14.4258 62.916 14.4078 63.3419 14.43C63.3684 14.4036 63.4117 14.3953 63.4472 14.4126C64.2551 14.253 64.9961 13.7534 65.8097 13.7944C65.7574 13.8117 65.7044 13.8381 65.6521 13.8638C67.2338 13.7798 68.14 12.3491 69.4596 11.692C71.1417 10.8538 73.1019 10.6859 74.6585 9.62288C75.4923 9.05391 76.1573 8.27471 76.9422 7.64121C77.7278 7.00841 78.7163 6.50813 79.7159 6.65939C79.1422 6.41515 78.5246 6.27291 77.9014 6.24169C79.6253 5.30289 81.4879 4.33357 83.4419 4.53687C82.5907 4.17467 81.6887 3.93043 80.7706 3.81317C81.5493 2.90074 82.9477 2.97429 84.1494 2.92849C87.3721 2.80429 89.9576 0.604749 93.2681 1.198C92.647 0.956537 92.0266 0.715765 91.4062 0.474301C93.5267 -0.252868 95.8975 -0.109236 98 0.668584C99.4248 1.19592 100.823 2.09794 101.391 3.50163C101.635 3.11931 101.722 2.64123 101.628 2.19855C102.522 3.14428 103.424 4.10043 104.09 5.21755C104.486 5.88296 104.88 6.68854 104.965 7.46774C105.037 8.12553 104.758 8.37046 104.623 8.94845C104.475 9.58333 104.548 9.66868 104.953 10.2203C105.184 10.5339 105.723 11.6261 105.968 11.7974C107.314 12.7397 108.062 14.4341 108.112 16.0654C109.179 18.4273 111.242 20.1842 113.039 22.0146C113.289 22.6224 113.459 23.4044 112.585 23.6521C112.166 23.7707 111.298 25.3958 110.85 25.7559C110.028 26.4171 109.297 26.6551 108.593 27.4579C107.448 28.7638 105.009 29.0538 104.639 31.0438C104.468 30.2646 104.477 29.4465 104.667 28.6715C104.031 29.0274 103.551 29.6498 103.37 30.3534C103.051 29.4556 102.965 28.4765 103.122 27.537C103.204 27.0388 103.356 26.5358 103.276 26.0369C103.146 25.2168 102.442 24.6263 101.786 24.1135C101.154 25.5727 101.329 27.2324 101.409 28.8193C101.49 30.4062 101.419 32.1318 100.423 33.3738C100.319 32.6404 100.156 31.9153 99.9379 31.2076C99.6465 33.2815 98.4837 35.2202 96.7884 36.4594C95.3001 37.5474 93.358 38.1913 92.456 39.7948C92.5097 39.2557 92.6916 38.7297 92.983 38.2725C91.9583 38.8727 90.8506 39.3306 89.7011 39.6338C88.569 39.9322 87.4321 39.7983 86.3181 40.1848C85.5778 38.4404 84.8382 36.696 84.0979 34.951C84.2707 35.3589 84.0595 36.3387 84.1146 36.823C84.1815 37.4135 84.2575 37.9984 84.3467 38.5847C84.551 39.926 84.9142 41.3144 85.5513 42.5182C86.0839 43.5257 86.8298 44.4062 87.4 45.3929C88.0044 46.4392 88.4031 47.5897 88.7949 48.7318C90.6463 54.1265 92.4469 59.5505 94.7843 64.7551C94.953 65.1305 95.144 65.5274 95.5002 65.7363C95.7518 65.8834 96.0523 65.916 96.343 65.9451C97.802 66.0915 99.8243 65.9326 101.195 66.4315C102.741 66.9942 103.046 69.6913 102.886 71.0776C102.852 71.3725 101.435 71.2754 101.24 71.3739C100.962 71.514 100.742 71.7437 100.492 71.9304C99.6841 72.5347 98.6113 72.6582 97.6012 72.6173C95.7672 72.5437 94.0551 72.0185 92.548 70.9777C91.2187 70.0597 90.1695 68.8038 89.1371 67.5646C87.172 65.2041 85.2062 62.8435 83.3311 60.4115C82.4736 59.2993 81.6309 58.1683 80.6257 57.1872C81.1645 57.0193 81.7584 57.0324 82.2882 57.2253C81.2719 56.3351 80.2548 55.4456 79.2384 54.5553C79.7034 54.452 80.1872 54.4318 80.6598 54.4957C79.3228 51.3358 75.4239 50.0619 73.4839 47.2295L74.7303 47.3322C74.7764 47.3357 73.8862 45.3409 73.6735 45.082C72.7492 43.9552 71.5439 42.972 70.5081 41.9451C70.8573 42.7722 71.2058 43.5999 71.5551 44.427C70.9939 44.4569 70.5192 44.8864 70.2662 45.386C70.0131 45.8855 69.9378 46.4524 69.8486 47.0047C69.675 48.0768 69.567 49.2036 69.0302 50.1403C68.3791 51.2755 67.6388 52.3593 66.9954 53.5007C65.6793 55.8369 64.5131 58.2564 63.5065 60.7404C62.962 62.0851 62.4504 64.5262 64.1917 65.2665C64.7787 65.5163 65.436 65.5267 66.0676 65.6183C66.6991 65.7099 67.367 65.9194 67.7413 66.4343C67.9999 66.7895 68.0815 67.2419 68.1198 67.6791C68.1658 68.2043 68.1561 68.7559 67.917 69.2264C67.6779 69.6968 67.155 70.0576 66.6336 69.9633C66.3813 69.9175 66.1568 69.7745 65.9079 69.7162C65.3768 69.5914 64.8449 69.8627 64.32 70.0132C63.5804 70.2255 62.7724 70.1964 62.0502 69.9313C61.7575 69.8238 61.471 69.6725 61.2737 69.4311C61.1454 69.2736 61.0583 69.0827 60.9112 68.9426C60.578 68.6269 60.0531 68.663 59.6167 68.5159C58.5801 68.1669 58.2406 66.904 58.0552 65.8306C57.9311 65.1132 57.8077 64.3957 57.6837 63.6783C57.6174 63.2939 57.5505 62.9004 57.6126 62.5146C57.683 62.0768 57.9137 61.6834 58.0608 61.265C58.3577 60.4213 58.3096 59.5026 58.2776 58.6096C58.1863 56.0513 58.2588 53.4875 58.4937 50.9382C59.0088 51.435 59.4013 52.0567 59.6272 52.7347C59.4131 51.3802 59.1991 50.0258 58.9844 48.6714C59.4138 48.8802 59.7582 49.2563 59.9276 49.7004C60.6268 47.6403 60.8282 43.0775 64.122 43.6686C61.3176 43.3509 58.5585 44.3993 55.759 44.7559C49.3332 45.5747 43.058 42.7458 36.6385 41.8757C36.1916 41.8153 35.7294 41.7654 35.2966 41.8896C34.1812 42.2095 33.7107 43.4813 33.2868 44.5568C32.6692 46.1235 31.8703 47.7229 30.6205 48.8837C29.372 50.0439 27.8265 50.8349 26.6024 52.0248C25.4878 53.1086 24.6903 54.4679 23.9075 55.8085C23.1609 57.0866 22.5907 58.2668 23.0396 59.7198C23.4941 61.1901 24.1731 62.5965 25.0333 63.8739C25.5247 64.6039 26.1396 65.3352 26.9935 65.5558C27.5721 65.7057 28.1946 65.5996 28.7725 65.7515C29.526 65.95 30.1339 66.6133 30.2628 67.3786C30.3214 67.7283 30.2803 68.11 30.0718 68.3979C29.961 68.5513 29.8104 68.6699 29.6613 68.7865C29.3559 69.0259 29.0506 69.2645 28.746 69.5039C28.2866 69.864 27.7763 70.2422 27.1915 70.2332C26.9712 70.2297 26.7537 70.17 26.5341 70.1846C26.1667 70.2082 25.8475 70.4309 25.5045 70.5641C24.2672 71.0436 22.8472 70.2755 22.0616 69.2097C21.2759 68.1446 20.9316 66.8305 20.4032 65.6176C19.4238 63.3709 17.8051 61.4648 16.6068 59.3263C16.314 58.8039 16.0429 58.2571 15.9488 57.6666C15.7452 56.3899 16.39 55.1389 17.1025 54.0585C17.8351 52.9463 18.3753 52.0484 18.871 50.7911C17.3206 51.3226 15.7947 51.9249 14.3001 52.5966C14.1963 52.6431 14.0875 52.6944 14.022 52.7867C13.9572 52.879 13.9453 52.9962 13.9349 53.108C13.7599 54.9175 13.2266 56.6369 12.4243 58.264C12.0346 59.0544 11.7683 59.8592 11.2943 60.5427C10.4745 61.7229 10.8196 62.8193 10.4264 64.0432C9.95517 65.5107 8.53798 65.9229 7.49095 66.7736C8.11345 66.2677 8.50313 65.4892 8.5338 64.6899C7.87017 66.2053 6.58752 67.3856 5.1543 68.2224C3.72177 69.0585 2.1324 69.5858 0.55628 70.1069C0.837208 69.0356 1.27777 68.0059 1.85915 67.0615C1.17112 67.4751 0.543035 67.9871 0 68.5776C0.372247 67.3876 0.969656 66.2691 1.74482 65.2901L1.74273 65.295ZM99.0094 2.76821V2.75087C99.0003 2.75989 98.9919 2.75989 98.9829 2.75989C98.9919 2.75989 99.0003 2.76821 99.0094 2.76821ZM14.5873 41.1409C14.6278 41.3969 14.6682 41.653 14.7093 41.909C15.7564 40.7766 16.2729 39.2383 16.4312 37.7077C16.7149 34.9725 16.3628 32.0242 16.3238 29.2661C16.3133 28.5362 16.3245 27.7403 16.7853 27.1721C14.9017 29.4951 13.6372 31.9687 13.739 35.0453C13.7704 35.9827 13.9167 36.9118 14.0638 37.8381C14.2381 38.9393 14.4131 40.0397 14.5873 41.1409Z" fill="#F5F1E8"/>
</svg>
