<svg width="22" height="22" viewBox="0 0 22 22" fill="none" xmlns="http://www.w3.org/2000/svg">
<g clip-path="url(#clip0_680_2148)">
<path d="M3.8878 0C1.73413 0 0 1.73412 0 3.88777V17.4042C0 19.5578 1.73413 21.2919 3.8878 21.2919H11.2136V12.9681H9.01254V9.97127H11.2136V7.41092C11.2136 5.39937 12.5141 3.55243 15.5099 3.55243C16.7229 3.55243 17.6199 3.66887 17.6199 3.66887L17.5493 6.46744C17.5493 6.46744 16.6345 6.45879 15.6363 6.45879C14.556 6.45879 14.3828 6.95655 14.3828 7.78289V9.9713H17.6351L17.4934 12.9681H14.3828V21.2919H17.4042C19.5579 21.2919 21.292 19.5578 21.292 17.4042V3.88779C21.292 1.73414 19.5579 2.12919e-05 17.4042 2.12919e-05H3.88778L3.8878 0Z" fill="#A7B4A2"/>
</g>
<defs>
<clipPath id="clip0_680_2148">
<rect width="21.292" height="21.2919" fill="white"/>
</clipPath>
</defs>
</svg>
