<svg width="22" height="22" viewBox="0 0 22 22" fill="none" xmlns="http://www.w3.org/2000/svg">
<path fill-rule="evenodd" clip-rule="evenodd" d="M4.57912 0C3.36497 -8.9528e-08 2.20052 0.482197 1.34181 1.34056C0.483114 2.19893 0.000466265 3.36319 0 4.57733V16.7882C0 18.0027 0.482442 19.1674 1.34119 20.0261C2.19994 20.8849 3.36466 21.3673 4.57912 21.3673H16.7901C18.0043 21.3669 19.1685 20.8842 20.0269 20.0255C20.8853 19.1668 21.3675 18.0024 21.3675 16.7882V4.57733C21.367 3.36349 20.8846 2.1995 20.0263 1.34118C19.168 0.482869 18.004 0.000466055 16.7901 0H4.57912ZM18.1072 4.58437C18.1072 4.93415 17.9683 5.26961 17.7209 5.51694C17.4736 5.76428 17.1381 5.90323 16.7884 5.90323C16.4386 5.90323 16.1031 5.76428 15.8558 5.51694C15.6084 5.26961 15.4695 4.93415 15.4695 4.58437C15.4695 4.23458 15.6084 3.89912 15.8558 3.65179C16.1031 3.40445 16.4386 3.2655 16.7884 3.2655C17.1381 3.2655 17.4736 3.40445 17.7209 3.65179C17.9683 3.89912 18.1072 4.23458 18.1072 4.58437ZM10.6864 7.02514C9.7163 7.02514 8.78596 7.4105 8.10001 8.09644C7.41407 8.78238 7.0287 9.71272 7.0287 10.6828C7.0287 11.6529 7.41407 12.5832 8.10001 13.2691C8.78596 13.9551 9.7163 14.3404 10.6864 14.3404C11.6564 14.3404 12.5868 13.9551 13.2727 13.2691C13.9587 12.5832 14.344 11.6529 14.344 10.6828C14.344 9.71272 13.9587 8.78238 13.2727 8.09644C12.5868 7.4105 11.6564 7.02514 10.6864 7.02514ZM5.26845 10.6828C5.26845 9.24634 5.83908 7.86872 6.85481 6.853C7.87054 5.83728 9.24816 5.26666 10.6846 5.26666C12.1211 5.26666 13.4987 5.83728 14.5144 6.853C15.5301 7.86872 16.1008 9.24634 16.1008 10.6828C16.1008 12.1192 15.5301 13.4968 14.5144 14.5126C13.4987 15.5283 12.1211 16.0989 10.6846 16.0989C9.24816 16.0989 7.87054 15.5283 6.85481 14.5126C5.83908 13.4968 5.26845 12.1192 5.26845 10.6828Z" fill="#A7B4A2"/>
</svg>
