<svg width="22" height="22" viewBox="0 0 22 22" fill="none" xmlns="http://www.w3.org/2000/svg">
<g clip-path="url(#clip0_680_2146)">
<path d="M17.2998 0C18.3995 0 19.3398 0.390444 20.1207 1.17133C20.9016 1.95222 21.292 2.89252 21.292 3.99223V17.2997C21.292 18.3994 20.9016 19.3397 20.1207 20.1206C19.3398 20.9015 18.3995 21.2919 17.2998 21.2919H7.24983C8.03535 20.1645 8.53438 19.1941 8.74693 18.3809C8.8301 18.0667 9.075 17.101 9.48161 15.4838C9.67568 15.8442 10.0153 16.1538 10.5005 16.4125C10.9856 16.6713 11.5055 16.8006 12.0599 16.8006C13.7326 16.8006 15.098 16.1191 16.1562 14.756C17.2143 13.3929 17.7434 11.6671 17.7434 9.57858C17.7434 8.80232 17.5816 8.05146 17.2582 7.32602C16.9348 6.60058 16.4889 5.95831 15.9205 5.39922C15.3522 4.84012 14.6475 4.39192 13.8066 4.05461C12.9656 3.7173 12.0553 3.54865 11.0757 3.54865C10.1146 3.54865 9.21593 3.68034 8.37958 3.94372C7.54324 4.20709 6.83628 4.56057 6.2587 5.00415C5.68111 5.44773 5.18439 5.95369 4.76853 6.52203C4.35267 7.09037 4.0454 7.68181 3.84671 8.29636C3.64802 8.9109 3.54867 9.52314 3.54867 10.1331C3.54867 11.0757 3.73119 11.9074 4.09622 12.6282C4.46126 13.349 4.99956 13.8573 5.71115 14.153C5.83128 14.1992 5.93987 14.1992 6.0369 14.153C6.13394 14.1068 6.20094 14.019 6.2379 13.8896C6.33032 13.483 6.39963 13.2012 6.44583 13.0441C6.50128 12.8315 6.45045 12.6374 6.29335 12.4619C5.83128 11.8889 5.60025 11.1958 5.60025 10.3826C5.60025 8.99638 6.07849 7.81119 7.03497 6.82699C7.99145 5.8428 9.24134 5.3507 10.7846 5.3507C12.1616 5.3507 13.2359 5.72497 14.0076 6.47351C14.7792 7.22206 15.165 8.19239 15.165 9.38452C15.165 10.9371 14.8531 12.2586 14.2294 13.349C13.6056 14.4395 12.8039 14.9847 11.8243 14.9847C11.2698 14.9847 10.8216 14.7837 10.4797 14.3817C10.1377 13.9797 10.0315 13.5015 10.1609 12.947C10.2348 12.6328 10.3572 12.2054 10.5282 11.6648C10.6992 11.1242 10.8355 10.6529 10.9371 10.2509C11.0388 9.84889 11.0896 9.50465 11.0896 9.21817C11.0896 8.76535 10.9672 8.38877 10.7223 8.08843C10.4774 7.78809 10.1285 7.63792 9.67568 7.63792C9.11196 7.63792 8.63372 7.89898 8.24096 8.42111C7.84821 8.94325 7.65183 9.58782 7.65183 10.3549C7.65183 11.0202 7.76273 11.5793 7.98452 12.0321L6.62604 17.771C6.40425 18.6951 6.3719 19.8687 6.52901 21.2919H3.99226C2.89254 21.2919 1.95223 20.9015 1.17134 20.1206C0.390447 19.3397 0 18.3994 0 17.2997V3.99223C0 2.89252 0.390447 1.95222 1.17134 1.17133C1.95223 0.390444 2.89254 0 3.99226 0H17.2998Z" fill="#A7B4A2"/>
</g>
<defs>
<clipPath id="clip0_680_2146">
<rect width="21.292" height="21.2919" fill="white"/>
</clipPath>
</defs>
</svg>
