<svg width="23" height="23" viewBox="0 0 23 23" fill="none" xmlns="http://www.w3.org/2000/svg">
<g clip-path="url(#clip0_680_2144)">
<path fill-rule="evenodd" clip-rule="evenodd" d="M4.71383 0.941406C3.71384 0.941406 2.7548 1.33865 2.0477 2.04574C1.3406 2.75284 0.943359 3.71186 0.943359 4.71185V17.9084C0.943359 18.9084 1.3406 19.8674 2.0477 20.5745C2.7548 21.2816 3.71384 21.6788 4.71383 21.6788H17.9105C18.9104 21.6788 19.8695 21.2816 20.5766 20.5745C21.2837 19.8674 21.6809 18.9084 21.6809 17.9084V4.71185C21.6809 3.71186 21.2837 2.75284 20.5766 2.04574C19.8695 1.33865 18.9104 0.941406 17.9105 0.941406H4.71383ZM4.39899 4.24054C4.2958 4.27889 4.203 4.3408 4.12797 4.42135C4.05293 4.5019 3.99775 4.59886 3.96681 4.7045C3.93586 4.81015 3.93002 4.92156 3.94974 5.02986C3.96946 5.13816 4.01419 5.24036 4.08039 5.32831L9.37224 12.3508L3.79666 18.3316L3.75518 18.3797H5.68472L10.2376 13.4979L13.7366 18.1431C13.8177 18.2506 13.9279 18.3327 14.0542 18.3797H18.2225C18.3255 18.3411 18.4181 18.2791 18.4929 18.1984C18.5678 18.1178 18.6227 18.0208 18.6535 17.9152C18.6842 17.8096 18.6899 17.6982 18.6701 17.59C18.6502 17.4818 18.6054 17.3798 18.5392 17.2919L13.2473 10.2695L18.8691 4.24054H16.9367L12.3839 9.12326L8.88302 4.47808C8.80197 4.37021 8.69174 4.28779 8.56536 4.24054H4.39899ZM14.6547 17.011L6.06271 5.60921H7.96585L16.5569 17.0101L14.6547 17.011Z" fill="#A7B4A2"/>
</g>
<defs>
<clipPath id="clip0_680_2144">
<rect width="22.6228" height="22.6226" fill="white"/>
</clipPath>
</defs>
</svg>
