<?xml version="1.0" encoding="UTF-8"?>
<!DOCTYPE svg PUBLIC "-//W3C//DTD SVG 1.1//EN" "http://www.w3.org/Graphics/SVG/1.1/DTD/svg11.dtd">
<!-- Creator: CorelDRAW 2021 (64-Bit) -->
<svg xmlns="http://www.w3.org/2000/svg" xml:space="preserve" width="1190" height="420" version="1.1" style="shape-rendering:geometricPrecision; text-rendering:geometricPrecision; image-rendering:optimizeQuality; fill-rule:evenodd; clip-rule:evenodd"
viewBox="4200 12600 11900 4200"
 xmlns:xlink="http://www.w3.org/1999/xlink"
 xmlns:xodm="http://www.corel.com/coreldraw/odm/2003">
 <defs>
  <style type="text/css">
   <![CDATA[
    .fil0 {fill:#F5F1E8;fill-rule:nonzero}
   ]]>
  </style>
 </defs>
 <g id="Layer_x0020_1">
  <metadata id="CorelCorpID_0Corel-Layer"/>
  <path class="fil0" d="M15686.05 15113.56c-26.58,1.22 -115.77,4.49 -333.81,13.49 -510.14,20.45 -471.27,18.4 -505.23,20.05 -382.09,18.4 -567.81,37.63 -837.4,38.04 -87.14,0 -81.41,-1.64 -119.86,0 0,0 -222.95,10.23 -404.18,-2.04 -10.64,-0.82 -34.78,-2.87 -42.96,-22.5 -6.96,-17.18 0,-41.31 8.6,-56.05 17.18,-30.27 48.67,-34.77 64.22,-36.4 96.55,-11.45 144.82,-17.59 192.68,-16.78 19.64,0 67.09,-4.49 162,-13.49 116.99,-11.45 184.49,-25.78 273.68,-40.5 178.36,-29.45 318.27,-38.87 409.5,-45.41 146.44,-10.22 254.03,-10.22 373.49,-10.22 228.68,0 497.04,11.04 497.04,21.68 0,14.74 -498.26,25.37 -498.26,31.92 0,2.04 54.4,2.04 156.68,3.27 136.64,1.64 144,3.27 287.59,5.73 269.18,4.49 403.37,6.95 552.27,3.27 16.36,0 31.92,-0.82 47.87,-0.82l0 -279.82c-92.45,-0.82 -207.4,-2.45 -476.58,-5.73 -497.04,-6.13 -553.08,-6.55 -665.17,0 -211.1,12.27 -382.9,35.18 -477.82,48.27 -292.09,39.68 -438.13,59.73 -524.05,83.86 0,0 -203.72,56.86 -490.49,38.45 -3.68,0 -25.77,-2.04 -51.54,-15.95 -11.86,-6.55 -53.59,-29.87 -56.45,-67.5 -2.05,-24.96 13.91,-46.23 20.45,-54.81 47.87,-61.37 140.73,-57.28 247.9,-54.81 0,0 109.64,2.44 241.37,2.04 99.41,-0.4 167.31,-7.78 245.03,-14.73 269.18,-24.96 659.45,-51.54 873.41,-61.36 298.63,-13.92 217.63,6.55 570.27,-6.56 218.05,-8.18 371.85,-20.04 543.67,-30.27l0 -239.32c-243.41,20.05 -426.26,43.77 -487.22,51.96 -214.76,28.23 -222.14,36.83 -434.04,65.46 -101.45,13.49 -307.63,40.91 -564.94,58.91 -422.59,29.05 -421.77,-6.13 -634.49,32.73 -106.37,19.65 -214.36,19.65 -321.13,36.01 -18.82,2.86 -211.5,32.31 -220.9,-9.83 -0.82,-3.68 -2.05,-14.31 1.22,-26.18 5.32,-19.22 19.23,-29.04 24.54,-32.73 78.95,-55.23 296.18,-59.72 296.18,-59.72 1.22,0 65.85,-7.36 194.72,-22.09 248.32,-28.23 295.77,-72.01 506.04,-101.46 59.32,-8.18 162,-11.05 367.36,-16.36 256.9,-6.55 282.26,0 467.59,-6.55 162,-5.73 149.31,-11.05 453.26,-29.45 176.32,-10.64 283.91,-15.14 352.23,-17.18l0 -393.14c-448.35,71.18 -462.27,81.81 -699.14,111.68 -166.08,20.87 -133.77,12.27 -499.49,54 -219.27,24.96 -273.26,33.14 -455.72,52.37 -235.23,24.95 -352.63,37.63 -459.82,42.13 -200.86,8.19 -437.72,3.69 -437.72,3.69 0,0 -15.96,-40.91 -12.69,-61.36 6.96,-41.72 102.68,-45.41 102.68,-45.41 132.55,-4.91 263.04,-54.81 395.59,-52.36 145.64,2.86 290.86,-24.54 436.5,-31.5 233.18,-11.04 540.81,-25.78 852.94,-69.95 0,0 387.81,-54.81 777.26,-101.04l0 -893.44 -3311.55 -0.03 0 2992.05 3311.54 0 0 -778.08c-110.04,3.68 -205.77,7.36 -284.31,10.64l-0.41 1.23zm63 215.58c-47.87,18 -118.22,42.14 -204.14,63.41 -141.95,35.59 -248.72,44.18 -337.91,51.96 -200.87,16.78 -401.32,36.82 -602.17,53.59 -98.59,8.18 -246.68,21.27 -428.73,40.09 -54.81,-6.96 -92.03,-61.77 -89.99,-113.73 2.05,-50.72 40.09,-80.99 43.77,-83.86 41.31,-2.86 158.31,-10.64 200.45,-13.49 306.81,-20.45 463.08,-30.68 597.26,-38.45 56.86,-3.27 257.72,-14.73 519.95,-20.05 246.68,-5.31 358.77,-1.22 360.81,21.69 1.23,12.69 -31.91,27.82 -58.91,38.45l-0.39 0.39z"/>
  <path class="fil0" d="M9752.55 15712c-27.71,0 -53.22,-5.83 -76.55,-17.49 -23.33,-11.67 -41.31,-28.92 -53.94,-51.76 -4.86,-9.24 -8.64,-19.57 -11.3,-30.99 -2.68,-11.41 -4.02,-21.02 -4.02,-28.8 0,-8.74 2.55,-15.3 7.65,-19.68 5.12,-4.36 10.82,-6.56 17.13,-6.56 10.22,0 16.78,3.65 19.7,10.94 2.91,7.29 4.86,15.06 5.83,23.33 3.89,23.81 14.33,42.28 31.34,55.4 17.01,13.12 38.15,19.69 63.43,19.69 26.72,0 48.47,-6.81 65.23,-20.41 16.77,-13.61 25.16,-33.54 25.16,-59.79 0,-19.92 -5.35,-36.32 -16.04,-49.21 -10.69,-12.87 -24.54,-24.04 -41.56,-33.52 -17,-9.49 -34.86,-18.6 -53.57,-27.35 -18.71,-8.75 -36.57,-18.82 -53.59,-30.24 -17,-11.43 -30.85,-25.52 -41.54,-42.29 -10.7,-16.77 -16.05,-38.03 -16.05,-63.78 0,-24.79 5.83,-46.29 17.5,-64.52 11.66,-18.23 27.58,-32.31 47.75,-42.29 20.17,-9.96 42.88,-14.93 68.16,-14.93 23.82,0 45.68,4.73 65.61,14.21 19.92,9.47 35.96,23.45 48.11,41.92 6.81,10.69 12.03,23.08 15.68,37.17 3.64,14.1 5.47,26.01 5.47,35.73 0,8.74 -2.44,15.31 -7.3,19.68 -4.86,4.38 -10.69,6.56 -17.49,6.56 -10.2,0 -16.77,-3.65 -19.69,-10.93 -2.91,-7.3 -4.86,-15.07 -5.83,-23.33 -3.39,-25.76 -12.87,-44.71 -28.43,-56.87 -15.55,-12.14 -34.75,-18.21 -57.58,-18.21 -24.31,0 -44.11,6.43 -59.42,19.31 -15.3,12.88 -22.97,31.47 -22.97,55.77 0,18.47 5.36,34.02 16.05,46.66 10.69,12.63 24.54,23.81 41.54,33.53 17.02,9.72 34.88,19.31 53.59,28.79 18.71,9.48 36.57,20.17 53.57,32.08 17.02,11.9 30.87,26.24 41.56,43.01 10.69,16.76 16.03,37.78 16.03,63.05 0,25.27 -5.94,47.39 -17.85,66.34 -11.91,18.96 -28.31,33.65 -49.2,44.1 -20.91,10.46 -44.97,15.68 -72.17,15.68zm331.68 0c-24.79,0 -45.81,-4.86 -63.05,-14.58 -17.26,-9.72 -30.39,-23.09 -39.37,-40.09 -8.99,-17.02 -13.49,-35.96 -13.49,-56.87 0,-33.05 11.91,-59.9 35.73,-80.55 23.81,-20.65 55.15,-30.98 94.03,-30.98l87.48 0 0 -39.37c0,-30.12 -6.8,-52.36 -20.41,-66.69 -13.61,-14.34 -33.78,-21.51 -60.5,-21.51 -22.36,0 -39.62,5.34 -51.76,16.03 -12.16,10.69 -20.91,23.33 -26.25,37.91 -1.94,5.83 -5.22,10.58 -9.84,14.21 -4.62,3.65 -9.6,5.48 -14.95,5.48 -8.25,0 -14.21,-2.44 -17.85,-7.3 -3.65,-4.86 -5.48,-9.72 -5.48,-14.58 0,-4.36 0.74,-8.5 2.2,-12.39 1.45,-3.89 2.42,-6.81 2.92,-8.75 9.22,-22.84 24.41,-41.07 45.55,-54.67 21.15,-13.61 46.53,-20.42 76.19,-20.42 38.87,0 69.97,11.19 93.3,33.54 23.33,22.36 34.99,56.62 34.99,102.79l0 233.28c0,6.8 -2.31,12.51 -6.92,17.13 -4.62,4.61 -10.57,6.92 -17.86,6.92 -6.32,0 -11.9,-2.31 -16.76,-6.92 -4.86,-4.62 -7.3,-10.33 -7.3,-17.13l0 -47.39c-4.86,20.89 -15.31,38.28 -31.34,52.12 -16.05,13.85 -39.12,20.78 -69.26,20.78zm6.57 -43.74c20.89,0 38.26,-4.86 52.12,-14.58 13.85,-9.72 24.41,-22.35 31.71,-37.91 7.28,-15.55 10.93,-31.83 10.93,-48.84l0 -34.26 -84.56 0c-31.59,0 -53.58,6.81 -65.97,20.41 -12.4,13.61 -18.6,29.64 -18.6,48.11 0,19.44 6.2,35.48 18.6,48.11 12.39,12.64 30.97,18.96 55.77,18.96zm363.03 43.74c-33.53,0 -60.99,-6.8 -82.37,-20.41 -21.39,-13.61 -35.49,-31.1 -42.29,-52.49 -1.94,-6.8 -3.16,-11.9 -3.64,-15.31 -0.49,-3.4 -0.73,-6.55 -0.73,-9.47 0,-7.29 2.31,-13.13 6.93,-17.49 4.61,-4.39 10.08,-6.57 16.4,-6.57 3.89,0 7.65,1.09 11.3,3.28 3.65,2.19 6.44,5.47 8.38,9.84 3.41,6.8 6.2,13.97 8.38,21.51 2.19,7.53 7.41,15.66 15.68,24.41 6.81,6.33 15.19,10.95 25.15,13.86 9.96,2.92 21.75,4.37 35.36,4.37 28.66,0 48.84,-6.44 60.5,-19.31 11.67,-12.88 17.5,-26.85 17.5,-41.93 0,-14.09 -4.02,-25.27 -12.03,-33.53 -8.02,-8.26 -18.35,-15.07 -30.98,-20.41 -12.64,-5.35 -26.49,-10.21 -41.56,-14.58 -17.97,-5.83 -35.84,-12.51 -53.57,-20.04 -17.75,-7.54 -32.45,-18.47 -44.11,-32.81 -11.66,-14.33 -17.5,-34.63 -17.5,-60.87 0,-19.92 4.99,-38.03 14.95,-54.31 9.96,-16.29 24.17,-29.16 42.64,-38.64 18.47,-9.47 40.1,-14.22 64.89,-14.22 31.58,0 57.46,6.81 77.63,20.42 20.16,13.6 33.42,31.1 39.73,52.49 1.94,6.32 3.16,11.18 3.65,14.58 0.48,3.4 0.72,6.32 0.72,8.74 0,7.3 -2.3,13.13 -6.92,17.5 -4.62,4.38 -10.33,6.56 -17.13,6.56 -3.89,0 -7.54,-1.09 -10.93,-3.28 -3.41,-2.18 -6.33,-5.46 -8.75,-9.84 -3.41,-6.81 -6.09,-13.85 -8.03,-21.14 -1.94,-7.29 -7.04,-15.07 -15.3,-23.32 -12.16,-12.16 -30.13,-18.23 -53.95,-18.23 -24.3,0 -43.01,5.7 -56.13,17.13 -13.13,11.42 -19.68,27.09 -19.68,47.02 0,14.09 4.13,25.51 12.39,34.26 8.27,8.75 18.96,15.68 32.07,20.78 13.13,5.1 26.98,10.09 41.56,14.95 13.61,4.36 27.22,9.1 40.82,14.21 13.61,5.1 25.88,11.54 36.82,19.31 10.93,7.78 19.8,17.87 26.61,30.26 6.8,12.39 10.2,28.06 10.2,47.01 0,17.5 -4.74,34.39 -14.22,50.67 -9.48,16.28 -23.44,29.53 -41.91,39.73 -18.47,10.21 -41.32,15.31 -68.53,15.31zm313.47 0c-24.8,0 -45.81,-4.86 -63.06,-14.58 -17.25,-9.72 -30.38,-23.09 -39.37,-40.09 -8.99,-17.02 -13.48,-35.96 -13.48,-56.87 0,-33.05 11.9,-59.9 35.72,-80.55 23.81,-20.65 55.15,-30.98 94.04,-30.98l87.48 0 0 -39.37c0,-30.12 -6.81,-52.36 -20.42,-66.69 -13.6,-14.34 -33.78,-21.51 -60.5,-21.51 -22.36,0 -39.61,5.34 -51.76,16.03 -12.15,10.69 -20.9,23.33 -26.24,37.91 -1.95,5.83 -5.23,10.58 -9.85,14.21 -4.62,3.65 -9.59,5.48 -14.94,5.48 -8.26,0 -14.22,-2.44 -17.85,-7.3 -3.65,-4.86 -5.48,-9.72 -5.48,-14.58 0,-4.36 0.73,-8.5 2.19,-12.39 1.46,-3.89 2.43,-6.81 2.92,-8.75 9.23,-22.84 24.41,-41.07 45.56,-54.67 21.14,-13.61 46.53,-20.42 76.18,-20.42 38.87,0 69.97,11.19 93.3,33.54 23.33,22.36 35,56.62 35,102.79l0 233.28c0,6.8 -2.31,12.51 -6.92,17.13 -4.62,4.61 -10.58,6.92 -17.86,6.92 -6.33,0 -11.91,-2.31 -16.77,-6.92 -4.86,-4.62 -7.29,-10.33 -7.29,-17.13l0 -47.39c-4.86,20.89 -15.32,38.28 -31.35,52.12 -16.04,13.85 -39.12,20.78 -69.25,20.78zm6.56 -43.74c20.89,0 38.26,-4.86 52.12,-14.58 13.85,-9.72 24.42,-22.35 31.72,-37.91 7.28,-15.55 10.93,-31.83 10.93,-48.84l0 -34.26 -84.57 0c-31.58,0 -53.57,6.81 -65.97,20.41 -12.4,13.61 -18.59,29.64 -18.59,48.11 0,19.44 6.19,35.48 18.59,48.11 12.4,12.64 30.98,18.96 55.77,18.96zm279.93 42.28c-6.31,0 -11.9,-2.42 -16.76,-7.29 -4.86,-4.86 -7.3,-10.45 -7.3,-16.76l0 -344.08c0,-6.81 2.44,-12.52 7.3,-17.14 4.86,-4.61 10.69,-6.92 17.49,-6.92 6.81,0 12.51,2.31 17.13,6.92 4.62,4.62 6.92,10.33 6.92,17.14l0 51.76c1.94,-12.16 6.93,-24.07 14.95,-35.73 8.03,-11.66 18.96,-21.51 32.81,-29.53 13.84,-8.01 30.49,-12.03 49.93,-12.03 32.56,0 59.41,11.06 80.56,33.18 21.14,22.12 31.71,55.77 31.71,100.96l0 235.47c0,6.31 -2.31,11.9 -6.93,16.76 -4.61,4.87 -10.33,7.29 -17.13,7.29 -6.81,0 -12.64,-2.42 -17.5,-7.29 -4.86,-4.86 -7.28,-10.45 -7.28,-16.76l0 -235.47c0,-30.13 -6.93,-52.61 -20.78,-67.43 -13.85,-14.82 -32.21,-22.23 -55.04,-22.23 -23.81,0 -43.98,9.11 -60.51,27.34 -16.52,18.22 -24.79,42.64 -24.79,73.25l0 224.54c0,6.31 -2.42,11.9 -7.28,16.76 -4.86,4.87 -10.7,7.29 -17.5,7.29zm626.21 1.46c-26.74,0 -50.31,-5.46 -70.72,-16.41 -20.41,-10.93 -36.44,-26.85 -48.11,-47.74 -11.66,-20.9 -17.49,-46.9 -17.49,-78l0 -209.96c0,-29.64 6.07,-55.04 18.22,-76.17 12.15,-21.14 28.55,-37.43 49.21,-48.84 20.65,-11.42 43.86,-17.13 69.62,-17.13 27.7,0 51.76,5.71 72.17,17.13 20.4,11.41 36.2,27.22 47.38,47.38 11.18,20.17 16.76,43.37 16.76,69.62 0,7.29 -2.3,13.36 -6.92,18.22 -4.62,4.87 -10.32,7.29 -17.13,7.29 -7.29,0 -13.24,-2.42 -17.86,-7.29 -4.62,-4.86 -6.93,-10.93 -6.93,-18.22 0,-25.76 -7.41,-46.77 -22.23,-63.06 -14.82,-16.28 -36.57,-24.43 -65.24,-24.43 -26.74,0 -48.12,8.03 -64.15,24.07 -16.05,16.04 -24.06,39.12 -24.06,69.25l0 214.32c0,29.66 7.65,52.62 22.96,68.89 15.31,16.28 36.81,24.43 64.52,24.43 27.21,0 48.71,-7.78 64.5,-23.33 15.81,-15.55 23.7,-38.88 23.7,-69.99l0 -75.08 -56.13 0c-7.29,0 -13.24,-2.31 -17.86,-6.93 -4.62,-4.61 -6.93,-10.08 -6.93,-16.4 0,-6.81 2.31,-12.4 6.93,-16.77 4.62,-4.38 10.57,-6.56 17.86,-6.56l80.19 0c7.28,0 13.24,2.31 17.86,6.93 4.62,4.62 6.92,10.57 6.92,17.86l0 94.77c0,30.61 -6.07,56.49 -18.22,77.63 -12.15,21.15 -28.55,37.18 -49.2,48.11 -20.67,10.95 -43.87,16.41 -69.62,16.41zm271.18 -1.46c-6.81,0 -12.64,-2.42 -17.5,-7.29 -4.86,-4.86 -7.29,-10.45 -7.29,-16.76l0 -344.08c0,-6.81 2.43,-12.52 7.29,-17.14 4.86,-4.61 10.69,-6.92 17.5,-6.92 6.8,0 12.51,2.31 17.13,6.92 4.62,4.62 6.92,10.33 6.92,17.14l0 344.08c0,6.31 -2.3,11.9 -6.92,16.76 -4.62,4.87 -10.33,7.29 -17.13,7.29zm0 -448.33c-9.24,0 -17.13,-3.28 -23.7,-9.83 -6.56,-6.57 -9.84,-14.47 -9.84,-23.7 0,-9.72 3.28,-17.73 9.84,-24.06 6.57,-6.31 14.46,-9.48 23.7,-9.48 9.72,0 17.73,3.17 24.05,9.48 6.32,6.33 9.48,14.34 9.48,24.06 0,9.23 -3.16,17.13 -9.48,23.7 -6.32,6.55 -14.33,9.83 -24.05,9.83zm164.75 448.33c-6.31,0 -11.9,-2.42 -16.76,-7.29 -4.86,-4.86 -7.3,-10.45 -7.3,-16.76l0 -344.08c0,-6.81 2.44,-12.52 7.3,-17.14 4.86,-4.61 10.69,-6.92 17.49,-6.92 6.81,0 12.51,2.31 17.13,6.92 4.62,4.62 6.92,10.33 6.92,17.14l0 61.96c5.83,-27.22 16.41,-48.24 31.72,-63.06 15.3,-14.82 34.38,-22.23 57.23,-22.23 9.72,0 17,2.18 21.86,6.55 4.86,4.38 7.3,10.45 7.3,18.23 0,7.28 -2.31,13.12 -6.93,17.5 -4.62,4.36 -10.82,6.56 -18.6,6.56 -27.2,0 -49.45,10.09 -66.69,30.25 -17.26,20.17 -25.89,46.78 -25.89,79.83l0 208.49c0,6.31 -2.42,11.9 -7.28,16.76 -4.86,4.87 -10.7,7.29 -17.5,7.29z"/>
  <path class="fil0" d="M5446.04 14094.25c0,-17.12 2.7,-29.96 8.1,-38.5 5.41,-8.56 12.84,-14.42 22.3,-17.58 9.47,-3.15 20.27,-4.73 32.43,-4.73 12.17,0 24.55,0 37.16,0 14.42,0 30.63,0.45 48.64,1.35 18.01,0.91 33.78,4.07 47.3,9.47 11.7,4.49 22.52,17.12 32.42,37.83 9.91,20.72 19.15,45.71 27.71,74.99 8.56,29.28 16.43,61.26 23.64,95.94 7.21,34.67 14.19,68.01 20.94,99.99 6.76,31.97 13.07,61.47 18.93,88.5 5.84,27.03 11.47,47.29 16.89,60.81 0.89,5.4 4.26,9 10.12,10.81 5.86,1.8 11.03,2.7 15.54,2.7 13.52,0 25.9,-10.81 37.17,-32.43 11.26,-21.63 22.06,-48.87 32.43,-81.75 10.35,-32.88 20.94,-68.69 31.74,-107.42 10.81,-38.74 21.86,-75.66 33.12,-110.8 11.26,-35.13 22.96,-65.54 35.13,-91.2 12.15,-25.68 25.89,-41.67 41.2,-47.97 10.81,-4.51 21.62,-7.21 32.43,-8.12 10.81,-0.89 22.07,-1.35 33.78,-1.35 10.81,0 21.84,0.68 33.1,2.03 11.26,1.35 21.85,4.28 31.76,8.79 13.51,6.3 25,22.07 34.45,47.29 9.47,25.22 17.8,54.95 25.01,89.18 7.19,34.23 13.96,70.48 20.26,108.77 6.31,38.29 13.29,73.42 20.94,105.39 7.66,31.98 16.22,58.55 25.68,79.72 9.45,21.17 20.94,31.76 34.45,31.76 13.52,0 25.22,-10.13 35.13,-30.41 9.91,-20.26 18.7,-45.94 26.36,-77.01 7.65,-31.08 15.31,-65.08 22.96,-102.02 7.66,-36.93 15.31,-72.29 22.98,-106.07 7.65,-33.78 16.43,-63.28 26.34,-88.51 9.91,-25.22 21.63,-41.43 35.13,-48.64 16.22,-9.01 37.61,-14.18 64.18,-15.54 26.59,-1.35 49.32,-2.02 68.24,-2.02 26.12,0 43.47,7.65 52.03,22.97 8.56,15.31 12.83,34.67 12.83,58.1 0,26.12 -1.8,52.03 -5.4,77.69 -3.61,25.68 -6.31,51.58 -8.12,77.7 -3.59,40.53 -7.87,78.15 -12.83,112.83 -4.95,34.67 -11.26,68.23 -18.91,100.66 -7.67,32.43 -17.12,65.31 -28.38,98.64 -11.26,33.33 -24.54,68.91 -39.87,106.74 -12.61,30.63 -24.08,55.4 -34.45,74.32 -10.36,18.92 -22.52,33.55 -36.48,43.92 -13.96,10.35 -31.31,17.33 -52.02,20.94 -20.72,3.6 -48.2,5.4 -82.42,5.4 -35.13,0 -63.06,-1.57 -83.78,-4.73 -20.72,-3.14 -37.84,-9.91 -51.34,-20.26 -13.51,-10.37 -24.77,-25.22 -33.78,-44.59 -9.02,-19.38 -19.82,-44.82 -32.43,-76.35 -3.6,-9.01 -8.34,-21.62 -14.19,-37.83 -5.86,-16.22 -12.61,-32.43 -20.26,-48.65 -7.67,-16.21 -16.45,-30.17 -26.36,-41.89 -9.91,-11.7 -20.72,-17.55 -32.43,-17.55 -11.7,0 -22.74,5.4 -33.1,16.2 -10.37,10.82 -20.05,23.43 -29.05,37.84 -9.01,14.41 -16.66,29.27 -22.97,44.6 -6.3,15.31 -11.72,27.47 -16.21,36.48 -13.52,28.82 -25.01,52.23 -34.47,70.26 -9.45,18.02 -20.48,31.98 -33.09,41.89 -12.62,9.91 -28.38,17.33 -47.31,22.29 -18.91,4.95 -44.58,8.79 -77.01,11.49 -7.21,0.89 -14.63,1.58 -22.3,2.02 -7.64,0.45 -15.08,0.68 -22.29,0.68 -19.82,0 -37.38,-4.51 -52.7,-13.52l-1.35 0c-13.51,-8.11 -26.58,-23.87 -39.19,-47.29 -12.61,-23.42 -24.31,-49.32 -35.13,-77.7 -10.8,-28.36 -20.49,-56.3 -29.04,-83.77 -8.56,-27.47 -15.54,-49.32 -20.95,-65.53 -26.12,-72.96 -49.55,-146.15 -70.26,-219.57 -20.72,-73.42 -31.08,-149.31 -31.08,-227.68zm1424.17 744.51c-15.31,0 -31.75,-0.67 -49.32,-2.03 -17.56,-1.35 -32.64,-6.52 -45.25,-15.53 -9.91,-7.2 -17.58,-23.65 -22.98,-49.32 -5.4,-25.67 -9.45,-55.86 -12.16,-90.53 -2.7,-34.68 -4.5,-71.39 -5.41,-110.12 -0.9,-38.74 -1.12,-74.54 -0.67,-107.43 0.45,-32.88 1.12,-60.35 2.03,-82.42 0.9,-22.07 1.35,-33.55 1.35,-34.46 0,-15.31 0.22,-37.38 0.67,-66.21 0.46,-28.82 2.03,-58.32 4.74,-88.5 2.7,-30.17 7.2,-58.32 13.5,-84.45 6.31,-26.12 15.32,-43.68 27.03,-52.7 12.61,-9.91 26.12,-15.76 40.53,-17.56 14.42,-1.8 29.28,-2.71 44.59,-2.71 15.31,0 32.66,0.46 52.02,1.35 19.37,0.91 35.36,5.42 47.97,13.52 9.91,5.4 17.35,16.21 22.3,32.43 4.96,16.21 8.55,33.56 10.8,52.02 2.26,18.47 3.61,36.49 4.07,54.05 0.44,17.57 0.67,31.3 0.67,41.21 0,31.52 -1.13,62.83 -3.37,93.91 -2.26,31.08 -3.39,62.38 -3.39,93.91l0 82.43 2.7 163.49 0 82.42c0,36.93 -6.98,61.7 -20.94,74.32 -13.96,12.61 -39.86,18.91 -77.7,18.91l-33.78 0zm468.87 -8.1c-13.51,0 -28.59,0.23 -45.27,0.67 -16.66,0.45 -33.33,0 -49.99,-1.35 -16.66,-1.35 -32.88,-3.6 -48.64,-6.76 -15.77,-3.15 -29.5,-7.87 -41.21,-14.18 -18.91,-10.81 -33.1,-30.63 -42.57,-59.45 -9.46,-28.83 -15.76,-60.14 -18.91,-93.92 -3.16,-33.78 -4.51,-67.11 -4.05,-99.98 0.44,-32.88 0.67,-58.79 0.67,-77.7l0 -58.1 -1.36 -114.85 0 -58.11c0,-11.7 0,-25.22 0,-40.53 0,-15.32 0.46,-30.63 1.36,-45.94 0.9,-15.31 2.26,-30.4 4.05,-45.27 1.8,-14.86 4.5,-27.7 8.11,-38.5 4.5,-15.31 10.36,-26.36 17.56,-33.11 7.21,-6.76 19.37,-10.14 36.49,-10.14 50.44,0 89.85,1.58 118.23,4.73 28.38,3.16 49.55,11.95 63.51,26.35 13.96,14.42 22.73,35.81 26.34,64.19 3.6,28.37 5.41,67.78 5.41,118.22l0 41.9 -4.06 82.42 0 41.88c0,9.91 0.23,24.77 0.67,44.59 0.46,19.82 1.58,40.09 3.39,60.81 1.8,20.71 5.17,39.86 10.13,57.42 4.95,17.57 11.49,29.5 19.6,35.82 8.1,6.3 17.11,9.91 27.02,10.8 9.91,0.9 19.82,1.35 29.73,1.35l21.61 0 43.24 -4.05c18.03,0 34.23,0.9 48.65,2.7 14.4,1.81 30.63,4.95 48.64,9.46 20.71,6.31 33.33,13.52 37.83,21.62 4.51,8.11 7.66,22.52 9.46,43.24 0.91,9.91 2.03,19.13 3.38,27.69 1.35,8.56 2.03,17.8 2.03,27.71 0,12.61 -1.57,21.84 -4.73,27.7 -3.16,5.86 -9.68,12.38 -19.59,19.59 -11.72,8.1 -31.31,14.19 -58.78,18.24 -27.48,4.05 -56.98,7.21 -88.5,9.46 -31.54,2.26 -62.16,3.38 -91.89,3.38 -29.73,0 -52.25,0 -67.56,0zm370.24 -655.34c0,-18.02 0.22,-35.35 0.68,-52.03 0.44,-16.66 2.47,-33.99 6.07,-52.02 0,-1.79 0.91,-6.52 2.7,-14.17 1.81,-7.67 4.96,-10.59 9.47,-8.79 10.81,-4.51 31.52,-7.89 62.15,-10.14 30.63,-2.24 63.73,-3.82 99.32,-4.73 35.57,-0.9 69.81,-1.12 102.68,-0.67 32.88,0.46 56.98,0.67 72.29,0.67 24.33,0 49.32,0 75,0 25.67,0 51.34,0.91 77.02,2.7 25.67,1.81 50.9,5.42 75.66,10.82 24.77,5.4 48.42,13.51 70.94,24.31 18.02,8.12 32.43,16.22 43.24,24.33 10.81,8.1 19.82,16.89 27.02,26.34 7.21,9.47 13.96,20.05 20.27,31.77 6.3,11.7 13.51,26.11 21.63,43.23 13.5,27.92 23.41,52.48 29.71,73.65 6.31,21.15 9.47,47.51 9.47,79.03 0,18.93 -0.68,37.62 -2.03,56.08 -1.35,18.47 -2.48,37.16 -3.37,56.07 -0.91,33.34 -2.49,61.72 -4.74,85.14 -2.26,23.41 -6.75,45.04 -13.5,64.86 -6.77,19.82 -17.12,39.18 -31.08,58.09 -13.96,18.92 -33.11,40.09 -57.43,63.51 -30.64,29.73 -59.68,51.57 -87.15,65.53 -27.48,13.96 -55.86,23.43 -85.13,28.38 -29.28,4.96 -59.9,7.2 -91.88,6.75 -31.99,-0.44 -67.79,-0.67 -107.43,-0.67l-48.64 0 -97.29 1.35 -48.63 0c-15.32,0 -32.66,-0.23 -52.03,-0.68 -19.37,-0.44 -35.36,-5.63 -47.97,-15.54 -4.5,-3.6 -8.33,-14.18 -11.48,-31.75 -3.16,-17.56 -5.63,-38.73 -7.44,-63.51 -1.79,-24.76 -2.93,-51.34 -3.37,-79.72 -0.45,-28.37 -0.68,-55.4 -0.68,-81.06 0,-25.68 0,-48.2 0,-67.57 0,-19.36 0,-32.65 0,-39.86l0 -70.26 -4.05 -139.18 0 -70.26zm386.44 78.38c-9.91,0 -21.39,0.21 -34.46,0.67 -13.05,0.45 -23.64,2.92 -31.75,7.43 -9.01,4.51 -15.99,12.16 -20.94,22.96 -4.96,10.82 -8.79,22.31 -11.49,34.47 -2.7,12.15 -4.28,24.54 -4.73,37.15 -0.44,12.61 -0.67,22.97 -0.67,31.08l0 102.69c0,12.61 0.9,25.45 2.7,38.51 1.81,13.07 5.18,25 10.14,35.81 4.95,10.81 12.15,19.81 21.61,27.02 9.47,7.21 22.31,10.81 38.51,10.81 12.62,0 24.56,-1.13 35.82,-3.37 11.26,-2.26 22.73,-4.28 34.45,-6.09 30.62,-5.4 54.27,-11.03 70.93,-16.89 16.68,-5.85 29.06,-14.19 37.16,-24.99 8.11,-10.81 13.3,-24.77 15.54,-41.89 2.25,-17.11 4.74,-40.09 7.44,-68.91 2.7,-26.13 4.05,-51.35 4.05,-75.67 0,-26.13 -5.4,-46.61 -16.22,-61.49 -10.81,-14.85 -24.54,-25.89 -41.2,-33.09 -16.67,-7.21 -35.36,-11.72 -56.08,-13.51 -20.73,-1.81 -40.99,-2.7 -60.81,-2.7zm852.6 94.57c0,-25.22 0.91,-47.06 2.7,-65.53 1.81,-18.46 5.63,-35.35 11.49,-50.67 5.86,-15.31 14.42,-30.39 25.68,-45.27 11.26,-14.85 25.9,-31.3 43.92,-49.32 21.61,-20.71 44.81,-37.83 69.58,-51.34 24.78,-13.52 50.67,-24.09 77.7,-31.76 27.02,-7.65 54.95,-12.82 83.77,-15.52 28.83,-2.72 57.65,-4.07 86.48,-4.07 29.72,0 59.45,-0.21 89.17,-0.67 29.73,-0.45 57.43,2.02 83.11,7.44 25.67,5.4 48.86,15.98 69.58,31.75 20.72,15.76 37.84,39.86 51.35,72.29 7.21,18.01 13.28,33.77 18.24,47.29 4.95,13.51 7.44,30.17 7.44,49.99 0,16.22 -2.26,32.2 -6.77,47.97 -4.49,15.77 -11.26,29.95 -20.26,42.57 -9.01,12.61 -20.27,22.74 -33.78,30.39 -13.51,7.67 -29.28,11.49 -47.29,11.49 -19.82,0 -34.24,-2.93 -43.25,-8.79 -9,-5.85 -15.31,-13.28 -18.91,-22.29 -3.61,-9 -6.31,-18.91 -8.1,-29.73 -1.81,-10.8 -5.42,-20.71 -10.82,-29.73 -5.4,-9 -14.19,-16.43 -26.35,-22.29 -12.15,-5.84 -30.85,-8.77 -56.07,-8.77 -24.33,0 -47.29,2.7 -68.91,8.1 -21.63,5.4 -40.54,14.19 -56.76,26.35 -16.21,12.15 -29.05,27.47 -38.5,45.93 -9.46,18.47 -14.19,41.22 -14.19,68.25l0 63.51c0,37.83 6.08,67.55 18.24,89.17 12.16,21.62 28.38,37.83 48.64,48.64 20.27,10.82 43.46,17.57 69.59,20.27 26.12,2.7 53.6,4.05 82.42,4.05 17.12,-9.9 28.84,-21.61 35.13,-35.13 6.32,-13.5 11.95,-26.8 16.9,-39.85 4.96,-13.07 12.15,-24.1 21.62,-33.11 9.45,-9.01 26.34,-13.51 50.67,-13.51 18.01,0 33.78,3.83 47.29,11.49 13.51,7.65 24.77,17.79 33.78,30.4 9,12.61 15.77,26.8 20.26,42.56 4.51,15.76 6.77,31.75 6.77,47.96 0,12.61 -1.35,24.55 -4.06,35.81 -2.71,11.26 -6.31,22.75 -10.81,34.45 -3.6,23.43 -10.58,43.02 -20.95,58.79 -10.35,15.76 -23.19,28.59 -38.5,38.5 -20.73,18.02 -44.82,29.73 -72.29,35.14 -27.47,5.4 -57.88,7.66 -91.21,6.75l-81.07 -1.35c0.9,0 1.79,-0.44 2.7,-1.35 -12.61,0 -25.22,-0.23 -37.83,-0.67 -12.61,-0.46 -24.33,-0.68 -35.13,-0.68 -27.03,0 -50.23,-0.9 -69.6,-2.7 -19.36,-1.81 -36.92,-5.86 -52.69,-12.16 -15.76,-6.31 -31.3,-15.09 -46.62,-26.35 -15.31,-11.26 -33.32,-25.9 -54.05,-43.91 -29.72,-26.14 -51.57,-50.22 -65.53,-72.3 -13.96,-22.07 -23.64,-44.59 -29.05,-67.56 -5.4,-22.96 -8.33,-47.96 -8.78,-74.99 -0.46,-27.02 -1.58,-58.56 -3.39,-94.58 -0.89,-17.12 -1.56,-34.01 -2.02,-50.68 -0.45,-16.66 -0.68,-33.55 -0.68,-50.67zm1036.38 316.19c-8.11,0 -15.32,2.47 -21.61,7.43 -6.32,4.95 -11.72,11.04 -16.23,18.24 -4.49,7.21 -8.55,14.86 -12.15,22.98 -3.6,8.1 -6.76,15.75 -9.46,22.96 -7.21,18.01 -11.48,33.55 -12.84,46.62 -1.35,13.07 -4.27,23.64 -8.78,31.75 -4.51,8.12 -13.51,13.96 -27.03,17.57 -13.51,3.6 -36.03,5.4 -67.56,5.4l-45.94 1.35c-24.32,0 -44.58,-4.28 -60.81,-12.83 -16.2,-8.56 -24.31,-27.25 -24.31,-56.08 0,-39.64 5.18,-78.14 15.54,-115.53 10.35,-37.38 20.49,-74.98 30.4,-112.82 17.12,-64.86 34.9,-129.04 53.37,-192.55 18.47,-63.5 44.82,-124.98 79.05,-184.44 18.01,-30.62 33.78,-54.72 47.29,-72.28 13.51,-17.57 28.15,-30.64 43.92,-39.2 15.76,-8.54 34.67,-13.73 56.74,-15.53 22.08,-1.8 50.67,-2.71 85.8,-2.71 39.64,0 70.72,1.81 93.24,5.42 22.52,3.59 41.66,11.03 57.42,22.29 15.77,11.26 29.73,27.01 41.89,47.29 12.17,20.27 26.8,47.07 43.92,80.4 9.91,18.91 21.39,43.46 34.45,73.63 13.06,30.18 26.58,62.61 40.54,97.29 13.97,34.68 27.7,71.16 41.21,109.45 13.52,38.29 25.45,75.22 35.81,110.8 10.35,35.58 18.68,68.91 25,99.99 6.3,31.08 9.45,56.98 9.45,77.7 0,16.2 -2.7,28.82 -8.1,37.83 -5.41,9 -12.84,15.77 -22.3,20.26 -9.45,4.51 -20.27,7.21 -32.43,8.12 -12.15,0.89 -24.55,1.79 -37.16,2.7 -12.61,0.89 -25,1.79 -37.15,2.7 -12.16,0.9 -24.55,1.35 -37.17,1.35 -18.01,0 -31.52,-2.03 -40.53,-6.08 -9,-4.06 -15.77,-9.46 -20.26,-16.21 -4.51,-6.76 -8.12,-14.87 -10.82,-24.33 -2.7,-9.45 -6.75,-19.14 -12.16,-29.05 -9.01,-18.01 -24.99,-32.88 -47.97,-44.59 -22.97,-11.71 -47.97,-21.16 -74.98,-28.37 -27.03,-7.21 -54.05,-12.17 -81.08,-14.87 -27.03,-2.7 -49.1,-4.05 -66.21,-4.05zm4.05 -229.7c0,9.91 1.36,18.01 4.06,24.31 2.71,6.31 7.65,12.17 14.86,17.57 4.51,3.6 13.51,7.88 27.03,12.84 13.51,4.95 27.92,9.68 43.24,14.19 15.31,4.49 29.95,8.33 43.91,11.47 13.96,3.16 24.1,4.74 30.4,4.74 9.91,0 20.94,-1.12 33.11,-3.38 12.16,-2.25 18.24,-10.58 18.24,-25 0,-12.61 -3.15,-31.97 -9.46,-58.09 -6.3,-26.13 -14.86,-52.48 -25.67,-79.05 -10.82,-26.57 -23.2,-49.99 -37.16,-70.27 -13.96,-20.27 -28.61,-30.39 -43.92,-30.39 -16.21,0 -30.4,6.98 -42.55,20.94 -12.17,13.96 -22.31,30.85 -30.41,50.67 -8.11,19.81 -14.42,39.85 -18.91,60.13 -4.51,20.26 -6.77,36.71 -6.77,49.32zm785.05 395.9c-13.51,0 -28.59,0.23 -45.27,0.67 -16.66,0.45 -33.32,0 -49.99,-1.35 -16.66,-1.35 -32.88,-3.6 -48.64,-6.76 -15.76,-3.15 -29.5,-7.87 -41.21,-14.18 -18.91,-10.81 -33.1,-30.63 -42.57,-59.45 -9.45,-28.83 -15.75,-60.14 -18.91,-93.92 -3.16,-33.78 -4.51,-67.11 -4.05,-99.98 0.44,-32.88 0.67,-58.79 0.67,-77.7l0 -58.1 -1.35 -114.85 0 -58.11c0,-11.7 0,-25.22 0,-40.53 0,-15.32 0.45,-30.63 1.35,-45.94 0.91,-15.31 2.26,-30.4 4.05,-45.27 1.8,-14.86 4.51,-27.7 8.12,-38.5 4.49,-15.31 10.35,-26.36 17.56,-33.11 7.2,-6.76 19.36,-10.14 36.48,-10.14 50.44,0 89.85,1.58 118.23,4.73 28.38,3.16 49.55,11.95 63.51,26.35 13.96,14.42 22.74,35.81 26.35,64.19 3.59,28.37 5.4,67.78 5.4,118.22l0 41.9 -4.05 82.42 0 41.88c0,9.91 0.22,24.77 0.67,44.59 0.45,19.82 1.57,40.09 3.38,60.81 1.8,20.71 5.17,39.86 10.14,57.42 4.94,17.57 11.48,29.5 19.59,35.82 8.1,6.3 17.11,9.91 27.02,10.8 9.91,0.9 19.82,1.35 29.73,1.35l21.61 0 43.24 -4.05c18.03,0 34.24,0.9 48.65,2.7 14.41,1.81 30.63,4.95 48.64,9.46 20.72,6.31 33.33,13.52 37.83,21.62 4.51,8.11 7.67,22.52 9.46,43.24 0.91,9.91 2.03,19.13 3.38,27.69 1.35,8.56 2.03,17.8 2.03,27.71 0,12.61 -1.57,21.84 -4.73,27.7 -3.16,5.86 -9.68,12.38 -19.59,19.59 -11.72,8.1 -31.31,14.19 -58.78,18.24 -27.48,4.05 -56.98,7.21 -88.5,9.46 -31.53,2.26 -62.16,3.38 -91.89,3.38 -29.73,0 -52.25,0 -67.56,0zm351.32 -132.42c0,-91.88 10.81,-179.48 32.43,-262.81 21.62,-83.32 49.09,-167.33 82.43,-252 13.51,-33.34 25.66,-59.91 36.48,-79.73 10.81,-19.82 23.87,-34.67 39.18,-44.58 15.32,-9.91 34.23,-16.44 56.75,-19.6 22.52,-3.15 51.8,-4.73 87.83,-4.73l14.86 0c16.22,0 29.96,0.68 41.22,2.03 11.26,1.35 21.39,4.06 30.39,8.11 9.02,4.05 17.12,10.36 24.33,18.92 7.21,8.56 14.86,20.03 22.97,34.45 25.23,43.24 39.63,89.63 43.24,139.18 0.9,10.8 1.81,20.94 2.7,30.39 0.9,9.47 3.16,18.03 6.76,25.68 3.61,7.66 9.01,13.73 16.22,18.24 7.19,4.51 17.56,6.75 31.06,6.75 10.82,0 20.28,-5.4 28.38,-16.2 8.12,-10.81 15.1,-23.65 20.94,-38.52 5.86,-14.86 10.6,-29.94 14.19,-45.25 3.61,-15.33 6.76,-27.03 9.47,-35.14 9.9,-34.23 19.81,-60.8 29.72,-79.73 9.91,-18.91 22.08,-33.32 36.48,-43.23 14.42,-9.91 32.66,-15.98 54.72,-18.24 22.08,-2.25 49.78,-3.37 83.1,-3.37l21.63 0c31.52,0 56.53,5.63 74.98,16.89 18.47,11.26 33.78,25.89 45.95,43.9 12.16,18.01 22.3,38.52 30.4,61.48 8.1,22.97 16.66,46.18 25.68,69.59 18.91,48.64 34.22,92.33 45.93,131.07 11.72,38.73 20.72,76.79 27.03,114.17 6.3,37.39 10.58,76.35 12.84,116.88 2.25,40.54 3.37,86.93 3.37,139.18 0,18.01 -0.67,33.78 -2.02,47.29 -1.35,13.52 -4.96,24.55 -10.81,33.11 -5.85,8.56 -14.41,15.08 -25.67,19.59 -11.26,4.51 -26.8,6.75 -46.62,6.75l-40.54 -1.35 -21.62 0c-14.42,0 -26.12,-0.89 -35.13,-2.7 -9,-1.8 -16.89,-5.17 -23.65,-10.13 -6.75,-4.95 -12.83,-11.49 -18.24,-19.6 -5.4,-8.1 -11.26,-18.01 -17.56,-29.73 -18.92,-37.83 -31.98,-77.68 -39.19,-119.58 -7.2,-41.88 -13.06,-83.54 -17.56,-124.99 -0.9,-7.19 -2.48,-18.91 -4.74,-35.13 -2.24,-16.21 -5.63,-32.43 -10.12,-48.64 -4.51,-16.2 -10.14,-30.62 -16.89,-43.23 -6.77,-12.61 -14.64,-18.92 -23.66,-18.92 -9,0 -16.66,2.92 -22.96,8.78 -6.31,5.86 -11.71,12.84 -16.22,20.94 -4.49,8.11 -7.88,16.89 -10.12,26.35 -2.26,9.47 -4.28,17.8 -6.09,25.01 -5.4,28.82 -12.16,56.97 -20.27,84.44 -8.11,27.48 -16.67,55.17 -25.67,83.1 -5.41,16.22 -10.13,29.27 -14.19,39.18 -4.05,9.91 -9.24,18.03 -15.54,24.33 -6.31,6.31 -14.64,11.03 -24.99,14.19 -10.36,3.15 -24.55,5.63 -42.57,7.43 -8.1,0.9 -15.99,1.79 -23.64,2.7 -7.66,0.9 -15.54,1.35 -23.65,1.35 -17.11,0 -34,-9.24 -50.67,-27.71 -16.67,-18.45 -31.76,-40.3 -45.26,-65.52 -13.52,-25.23 -24.56,-50.68 -33.12,-76.34 -8.56,-25.68 -14.19,-45.72 -16.89,-60.14 -0.89,-6.3 -2.24,-14.4 -4.05,-24.31 -1.79,-9.91 -4.28,-19.59 -7.42,-29.06 -3.16,-9.46 -7.44,-17.56 -12.84,-24.31 -5.4,-6.77 -12.17,-10.14 -20.27,-10.14 -10.81,0 -19.6,9.23 -26.35,27.7 -6.75,18.46 -12.16,39.63 -16.22,63.5 -4.05,23.88 -7.2,47.29 -9.46,70.27 -2.24,22.97 -3.82,38.5 -4.72,46.62 -2.71,17.11 -5.41,38.27 -8.11,63.49 -2.71,25.24 -7.88,49.55 -15.54,72.98 -7.65,23.42 -18.46,43.46 -32.43,60.13 -13.97,16.66 -33.1,24.99 -57.43,24.99l-14.86 0 -29.72 1.35c-47.75,0 -81.07,-11.48 -100,-34.46 -18.91,-22.96 -28.37,-57.42 -28.37,-103.36z"/>
 </g>
</svg>
