<svg width="24" height="19" viewBox="0 0 24 19" fill="none" xmlns="http://www.w3.org/2000/svg">
<g clip-path="url(#clip0_680_1592)">
<path d="M23.1398 16.6049H21.4743C20.9991 16.6049 20.6135 16.3368 20.6135 16.0059C20.6135 15.6751 20.9985 15.407 21.4743 15.407H22.7113C23.1865 15.407 23.572 15.1388 23.572 14.808C23.572 14.4772 23.1871 14.209 22.7113 14.209H2.43089C1.95566 14.209 1.57012 14.4772 1.57012 14.808C1.57012 15.1388 1.95504 15.407 2.43089 15.407H4.32433C4.79956 15.407 5.1851 15.6751 5.1851 16.0059C5.1851 16.3368 4.80019 16.6049 4.32433 16.6049H4.08018C3.60495 16.6049 3.21941 16.8731 3.21941 17.2039C3.21941 17.5347 2.83449 17.8029 2.35864 17.8029H1.7221C1.24687 17.8029 0.861328 18.0711 0.861328 18.4019C0.861328 18.7327 1.24624 19.0009 1.7221 19.0009H18.8789C19.3542 19.0009 19.7397 18.7327 19.7397 18.4019C19.7397 18.0711 20.1246 17.8029 20.6005 17.8029H23.141C23.6163 17.8029 24.0018 17.5347 24.0018 17.2039C24.0018 16.8731 23.6169 16.6049 23.141 16.6049H23.1398Z" fill="#F5F1E8"/>
<path d="M0.860769 16.5691C1.33616 16.5691 1.72154 16.3009 1.72154 15.9701C1.72154 15.6393 1.33616 15.3711 0.860769 15.3711C0.385379 15.3711 0 15.6393 0 15.9701C0 16.3009 0.385379 16.5691 0.860769 16.5691Z" fill="#F5F1E8"/>
<path d="M4.1329 12.9363H8.93066L8.86588 13.0685C8.71017 13.3848 8.93689 13.7573 9.28506 13.7573H15.856C16.2042 13.7573 16.4309 13.3848 16.2752 13.0685L16.2104 12.9363H22.0185C22.3666 12.9363 22.5933 12.5638 22.4376 12.2475L19.9762 7.24814L18.9435 5.1501C18.771 4.79906 18.2783 4.79906 18.1051 5.1501L16.6165 8.1735C16.6165 8.1735 16.6159 8.1735 16.6153 8.1735L16.5979 8.20829L15.5303 6.04004C16.3257 5.99134 16.9959 5.47205 17.2749 4.75225H20.2396C20.6607 4.75225 21.002 4.40564 21.002 3.97806C21.002 3.55048 20.6607 3.20387 20.2396 3.20387C20.2303 3.20323 20.2216 3.20576 20.2122 3.20639C20.2122 3.18932 20.2147 3.1735 20.2147 3.15706C20.2147 2.2766 19.5115 1.5625 18.6445 1.5625C18.0696 1.5625 17.5682 1.87686 17.2948 2.34555C17.1827 2.31076 17.0637 2.29178 16.9404 2.29178C16.8171 2.29178 16.6894 2.31202 16.5742 2.34934C16.2453 2.11025 15.843 1.9692 15.4082 1.9692C14.796 1.9692 14.2479 2.24814 13.8798 2.68774L12.9274 0.753517C12.7549 0.402473 12.2622 0.402473 12.0891 0.753517L10.4155 4.15263C10.4909 4.12417 10.5631 4.1014 10.631 4.08369C10.5631 4.1014 10.4915 4.12417 10.4155 4.15263L8.59993 7.8408L7.66068 5.93378C7.48816 5.58274 6.99549 5.58274 6.82234 5.93378L5.54177 8.53467L3.71311 12.2481C3.55739 12.5644 3.78411 12.9369 4.13228 12.9369L4.1329 12.9363ZM8.1602 8.17667C8.17266 8.17161 8.18512 8.16655 8.1982 8.16149C8.18512 8.16655 8.17328 8.17161 8.1602 8.17667ZM19.1696 8.22727C18.8762 8.25763 18.5934 8.07483 18.1033 7.99893C18.1014 7.99893 18.1002 7.99893 18.0983 7.9983C18.1002 7.9983 18.102 7.9983 18.1039 7.99893C18.5934 8.0742 18.8762 8.25763 19.1696 8.22727ZM13.4077 4.16275C12.9299 4.41892 12.7954 4.88002 12.3943 4.86927C12.796 4.87939 12.9306 4.41829 13.4083 4.16275H13.4077Z" fill="#F5F1E8"/>
<path d="M4.90586 3.46743H9.71607C10.1876 3.46743 10.57 3.07906 10.57 2.60025C10.57 2.23529 10.347 1.9241 10.0325 1.79633C10.0331 1.77483 10.0356 1.75459 10.0356 1.73308C10.035 0.776091 9.27074 0 8.32776 0C7.60401 0 6.9874 0.457938 6.73888 1.1031C6.68283 1.09424 6.62615 1.08539 6.56698 1.08539C5.91922 1.08539 5.39417 1.6186 5.39417 2.27641C5.39417 2.41493 5.42219 2.54649 5.46517 2.67046C5.29825 2.63694 5.10953 2.6167 4.90523 2.6167C4.25748 2.61733 3.73242 2.80772 3.73242 3.04238C3.73242 3.27704 4.25748 3.46743 4.90523 3.46743H4.90586Z" fill="#F5F1E8"/>
</g>
<defs>
<clipPath id="clip0_680_1592">
<rect width="24" height="19" fill="white"/>
</clipPath>
</defs>
</svg>
