<svg preserveAspectRatio="none" width="100%" height="100%" overflow="visible" style="display: block;" viewBox="0 0 172 108.864" fill="none" xmlns="http://www.w3.org/2000/svg">
<g id="Lion icon" clip-path="url(#clip0_0_48)">
<path id="Vector" d="M74.407 83.6985C74.8461 83.1515 75.3494 82.654 75.9053 82.2209C75.3857 82.5609 74.8067 82.9021 74.1841 82.8519C73.5614 82.8017 72.9687 82.1511 73.2304 81.5942C73.2947 81.457 73.4034 81.3387 73.4421 81.1917C73.5158 80.9111 73.3147 80.6379 73.2604 80.353C73.1723 79.8905 73.5483 79.3949 74.0248 79.3446C73.8056 78.9593 73.5783 78.5274 73.6782 78.0967C73.7919 77.6066 74.2777 77.3089 74.6837 77.002C76.0245 75.9893 76.7634 74.448 77.293 72.9127C77.5303 72.2241 77.7283 71.6305 78.1017 71.0093C78.4003 70.5125 78.7562 69.2548 79.2608 68.9668C80.518 68.2501 81.8177 67.3158 82.7807 66.2462C83.6756 65.2519 83.4458 63.9532 83.2141 62.7279C82.2305 57.5353 82.6932 51.8423 85.7534 47.4976C86.1275 46.9664 86.5428 46.4543 87.0649 46.061C87.6845 45.5941 88.4264 45.3154 89.1565 45.0428C91.5878 44.1367 94.0259 43.2337 96.5321 42.5445C97.8068 42.1941 99.0983 41.8976 100.405 41.6881C101.358 41.5355 102.817 41.609 103.69 41.266C103.73 41.2507 103.777 41.2427 103.816 41.258C105.991 40.9045 108.313 40.6595 110.496 40.6889C116.493 40.0456 122.547 39.4894 128.473 38.9276C128.829 38.7855 129.212 38.7695 129.594 38.7891C129.618 38.7659 129.656 38.7585 129.688 38.7738C130.412 38.6329 131.076 38.1918 131.805 38.228C131.758 38.2433 131.711 38.2666 131.664 38.2892C133.081 38.2151 133.893 36.9519 135.075 36.3717C136.582 35.6317 138.338 35.4834 139.733 34.5449C140.479 34.0426 141.075 33.3546 141.779 32.7953C142.482 32.2366 143.368 31.7949 144.264 31.9284C143.75 31.7128 143.196 31.5872 142.638 31.5596C144.182 30.7307 145.851 29.8749 147.602 30.0544C146.839 29.7346 146.031 29.519 145.208 29.4154C145.906 28.6098 147.159 28.6748 148.235 28.6343C151.123 28.5247 153.439 26.5827 156.405 27.1065C155.848 26.8933 155.293 26.6807 154.737 26.4675C156.637 25.8255 158.761 25.9523 160.644 26.639C161.921 27.1046 163.174 27.901 163.683 29.1404C163.901 28.8028 163.979 28.3807 163.894 27.9899C164.696 28.8249 165.504 29.6691 166.1 30.6554C166.455 31.2429 166.808 31.9541 166.885 32.6421C166.949 33.2229 166.698 33.4391 166.578 33.9494C166.445 34.51 166.511 34.5853 166.874 35.0724C167.081 35.3493 167.563 36.3135 167.783 36.4649C168.989 37.2968 169.659 38.7928 169.704 40.2331C170.659 42.3185 172.508 43.8696 174.118 45.4857C174.342 46.0224 174.494 46.7128 173.711 46.9315C173.335 47.0362 172.558 48.471 172.157 48.789C171.42 49.3728 170.765 49.5829 170.135 50.2917C169.108 51.4447 166.924 51.7007 166.592 53.4577C166.439 52.7698 166.447 52.0475 166.617 51.3632C166.047 51.6775 165.617 52.227 165.456 52.8482C165.17 52.0555 165.092 51.191 165.233 50.3616C165.307 49.9217 165.442 49.4775 165.371 49.0371C165.254 48.313 164.624 47.7916 164.036 47.3389C163.47 48.6272 163.627 50.0926 163.699 51.4937C163.771 52.8947 163.708 54.4183 162.815 55.5149C162.722 54.8674 162.576 54.2272 162.38 53.6023C162.119 55.4334 161.078 57.1451 159.559 58.2392C158.225 59.1998 156.486 59.7683 155.677 61.1841C155.725 60.7081 155.888 60.2437 156.149 59.84C155.231 60.3699 154.239 60.7743 153.209 61.042C152.195 61.3054 151.176 61.1872 150.178 61.5284C149.515 59.9883 148.853 58.4482 148.189 56.9074C148.344 57.2676 148.155 58.1327 148.204 58.5603C148.264 59.0816 148.332 59.598 148.412 60.1157C148.595 61.2999 148.921 62.5258 149.491 63.5887C149.969 64.4782 150.637 65.2556 151.148 66.1267C151.689 67.0506 152.046 68.0663 152.397 69.0747C154.056 73.8378 155.669 78.6267 157.763 83.2219C157.914 83.5534 158.086 83.9038 158.405 84.0882C158.63 84.218 158.899 84.2468 159.16 84.2726C160.467 84.4018 162.279 84.2615 163.506 84.702C164.892 85.1988 165.165 87.5801 165.022 88.8041C164.991 89.0645 163.722 88.9787 163.547 89.0657C163.298 89.1895 163.1 89.3922 162.877 89.557C162.153 90.0906 161.192 90.1997 160.287 90.1635C158.644 90.0986 157.11 89.6348 155.76 88.7159C154.569 87.9054 153.629 86.7966 152.704 85.7024C150.943 83.6183 149.182 81.5341 147.502 79.3869C146.734 78.4049 145.979 77.4063 145.079 76.5401C145.561 76.3918 146.093 76.4034 146.568 76.5738C145.657 75.7878 144.746 75.0024 143.836 74.2164C144.252 74.1251 144.686 74.1073 145.109 74.1637C143.911 71.3738 140.418 70.2491 138.68 67.7483L139.797 67.839C139.838 67.8421 139.041 66.0808 138.85 65.8523C138.022 64.8574 136.942 63.9893 136.014 63.0826C136.327 63.8129 136.639 64.5437 136.952 65.274C136.449 65.3003 136.024 65.6795 135.797 66.1206C135.571 66.5617 135.503 67.0622 135.423 67.5499C135.268 68.4964 135.171 69.4912 134.69 70.3183C134.107 71.3205 133.444 72.2775 132.867 73.2852C131.688 75.3479 130.643 77.4841 129.741 79.6773C129.254 80.8646 128.795 83.0198 130.355 83.6734C130.881 83.894 131.47 83.9032 132.036 83.984C132.602 84.0649 133.2 84.2499 133.535 84.7045C133.767 85.0181 133.84 85.4175 133.874 85.8035C133.916 86.2673 133.907 86.7543 133.693 87.1696C133.479 87.585 133.01 87.9036 132.543 87.8203C132.317 87.7798 132.116 87.6536 131.893 87.6022C131.417 87.4919 130.94 87.7314 130.47 87.8644C129.808 88.0518 129.084 88.0261 128.437 87.7921C128.174 87.6971 127.918 87.5636 127.741 87.3504C127.626 87.2113 127.548 87.0428 127.416 86.9191C127.118 86.6403 126.647 86.6722 126.257 86.5423C125.328 86.2342 125.024 85.1192 124.858 84.1715C124.746 83.538 124.636 82.9046 124.525 82.2711C124.465 81.9317 124.405 81.5844 124.461 81.2438C124.524 80.8572 124.731 80.5098 124.863 80.1404C125.129 79.3955 125.086 78.5844 125.057 77.7959C124.975 75.5372 125.04 73.2736 125.25 71.0228C125.712 71.4614 126.064 72.0103 126.266 72.6089C126.074 71.413 125.882 70.2172 125.69 69.0214C126.075 69.2058 126.383 69.5378 126.535 69.9299C127.161 68.111 127.342 64.0824 130.293 64.6044C127.78 64.3238 125.308 65.2495 122.8 65.5643C117.043 66.2872 111.421 63.7896 105.67 63.0214C105.27 62.9681 104.856 62.924 104.468 63.0336C103.469 63.316 103.047 64.439 102.668 65.3885C102.114 66.7718 101.398 68.1839 100.279 69.2088C99.1602 70.2331 97.7756 70.9315 96.6789 71.9822C95.6803 72.9391 94.9658 74.1392 94.2645 75.3228C93.5956 76.4512 93.0848 77.4933 93.4869 78.7761C93.8941 80.0743 94.5024 81.3161 95.2731 82.4439C95.7134 83.0884 96.2642 83.7341 97.0293 83.9289C97.5476 84.0612 98.1053 83.9675 98.6231 84.1016C99.2982 84.2768 99.8428 84.8625 99.9583 85.5382C100.011 85.847 99.9739 86.1839 99.7872 86.4382C99.6879 86.5736 99.553 86.6783 99.4193 86.7812C99.1458 86.9926 98.8722 87.2033 98.5993 87.4147C98.1878 87.7326 97.7306 88.0665 97.2066 88.0586C97.0093 88.0555 96.8144 88.0028 96.6177 88.0157C96.2886 88.0365 96.0025 88.2332 95.6953 88.3508C94.5867 88.7741 93.3146 88.0959 92.6107 87.1549C91.9069 86.2146 91.5984 85.0543 91.125 83.9834C90.2475 81.9997 88.7974 80.3169 87.7238 78.4288C87.4615 77.9675 87.2186 77.4847 87.1343 76.9634C86.9519 75.8362 87.5296 74.7316 88.1679 73.7778C88.8242 72.7957 89.3082 72.003 89.7523 70.8929C88.3633 71.3622 86.9962 71.894 85.6573 72.487C85.5642 72.528 85.4668 72.5733 85.4081 72.6548C85.35 72.7363 85.3394 72.8398 85.33 72.9385C85.1732 74.5362 84.6955 76.0543 83.9767 77.4909C83.6275 78.1886 83.389 78.8993 82.9643 79.5027C82.2298 80.5448 82.539 81.5127 82.1868 82.5934C81.7646 83.8891 80.4949 84.253 79.5569 85.004C80.1146 84.5574 80.4637 83.8701 80.4912 83.1643C79.8966 84.5023 78.7475 85.5444 77.4635 86.2832C76.1801 87.0214 74.7561 87.487 73.3441 87.9471C73.5958 87.0012 73.9905 86.092 74.5113 85.2583C73.8949 85.6234 73.3322 86.0755 72.8457 86.5968C73.1792 85.5462 73.7144 84.5587 74.4089 83.6943L74.407 83.6985ZM161.549 28.4928V28.4775C161.54 28.4855 161.533 28.4855 161.525 28.4855C161.533 28.4855 161.54 28.4928 161.549 28.4928ZM85.9146 62.3726C85.9508 62.5987 85.987 62.8247 86.0239 63.0508C86.9619 62.051 87.4247 60.6928 87.5664 59.3414C87.8206 56.9264 87.5052 54.3234 87.4703 51.8882C87.4609 51.2437 87.4709 50.5411 87.8837 50.0393C86.1962 52.0904 85.0633 54.2744 85.1545 56.9907C85.1826 57.8184 85.3138 58.6387 85.4455 59.4565C85.6017 60.4287 85.7584 61.4004 85.9146 62.3726Z" fill="var(--fill-0, #F5F1E8)"/>
</g>
<defs>
<clipPath id="clip0_0_48">
<rect width="172" height="108.864" fill="white"/>
</clipPath>
</defs>
</svg>
