<svg preserveAspectRatio="none" width="100%" height="100%" overflow="visible" style="display: block;" viewBox="0 0 1464 508.989" fill="none" xmlns="http://www.w3.org/2000/svg">
<g id="Vector" filter="url(#filter0_n_0_34)">
<path d="M0 22.307C5.95208 22.6531 14.975 22.8884 25.5937 21.9346C50.3407 19.7115 57.4388 15.7002 78.5095 7.98151C114.301 -5.12997 161.431 2.54495 170.852 3.51625C177.331 4.18443 179.712 4.67998 190.565 5.74893C211.623 7.82269 227.187 9.35503 245.556 8.53966C266.677 7.60187 266.368 4.67634 278.759 5.74893C291.159 6.82224 295.808 10.1281 316.11 17.4694C335.915 24.6299 345.815 28.2105 353.462 29.1898C380.505 32.6539 391.548 21.6898 420.903 25.2828C435.588 27.0804 435.053 30.097 452.03 33.0962C466.904 35.7237 480.771 35.7857 513.247 33.0962C587.552 26.9427 596.086 19.9031 621.154 24.7246C634.548 27.3012 642.571 31.3233 657.469 30.3061C675.944 29.0448 682.883 21.7466 692.745 24.1665C698.635 25.6114 696.601 28.7847 705.195 35.7011C708.597 38.438 714.958 43.5568 726.639 46.8634C729.359 47.6336 744.651 51.9626 760.532 49.4676C768.111 48.277 770.713 46.3351 781.515 45.2509C788.657 44.5339 789.595 45.1744 795.81 44.6308C810.545 43.3418 811.5 39.195 822.094 38.3053C836.136 37.1256 849.828 43.1196 856.68 46.1188C865.61 50.028 865.307 51.8584 872.589 53.9322C883.668 57.088 895.292 55.9615 901.641 55.4208C952.957 51.0474 960.245 59.2769 982.571 52.4443C1005.64 45.3843 1006.34 34.0019 1028.22 32.3523C1038.09 31.6083 1045.32 33.0598 1051.74 34.5848C1086.36 42.8034 1142.51 29.8311 1163.8 24.9112C1212.34 13.6942 1207.91 4.61946 1244.73 1.09786C1253.91 0.219825 1288.14 -2.79243 1315.97 7.42337C1326.93 11.4456 1333.05 16.1046 1335.34 17.8417C1355.77 33.2965 1401.62 65.37 1464 108.63C1462.62 241.587 1461.23 374.543 1459.85 507.5C973.81 507.996 487.771 508.493 1.73117 508.989C1.15547 346.762 0.575702 184.534 0 22.307Z" fill="var(--fill-0, #4D624A)"/>
</g>
<defs>
<filter id="filter0_n_0_34" x="0" y="0" width="1464" height="508.989" filterUnits="userSpaceOnUse" color-interpolation-filters="sRGB">
<feFlood flood-opacity="0" result="BackgroundImageFix"/>
<feBlend mode="normal" in="SourceGraphic" in2="BackgroundImageFix" result="shape"/>
<feTurbulence type="fractalNoise" baseFrequency="0.66666668653488159 0.66666668653488159" stitchTiles="stitch" numOctaves="3" result="noise" seed="0" />
<feColorMatrix in="noise" type="luminanceToAlpha" result="alphaNoise" />
<feComponentTransfer in="alphaNoise" result="coloredNoise1">
<feFuncA type="discrete" tableValues="1 1 1 1 1 1 1 1 1 1 1 1 1 1 1 1 1 1 1 1 1 1 1 1 1 1 1 1 1 1 1 1 1 1 1 1 1 1 1 1 1 1 1 1 1 1 1 1 1 1 1 0 0 0 0 0 0 0 0 0 0 0 0 0 0 0 0 0 0 0 0 0 0 0 0 0 0 0 0 0 0 0 0 0 0 0 0 0 0 0 0 0 0 0 0 0 0 0 0 0 "/>
</feComponentTransfer>
<feComposite operator="in" in2="shape" in="coloredNoise1" result="noise1Clipped" />
<feFlood flood-color="rgba(105, 127, 98, 0.35)" result="color1Flood" />
<feComposite operator="in" in2="noise1Clipped" in="color1Flood" result="color1" />
<feMerge result="effect1_noise_0_34">
<feMergeNode in="shape" />
<feMergeNode in="color1" />
</feMerge>
</filter>
</defs>
</svg>
